{
 "cells": [
  {
   "cell_type": "markdown",
   "metadata": {},
   "source": [
    "This notebook contains code for rendering .png images according to a predefined fsleyes orthographic view, of 3D-FLAIR based MNI normalized TOPUP and EPIC field maps overlayed on a MNI brain regions template. It also uses ffmpeg to make videos of the images."
   ]
  },
  {
   "cell_type": "markdown",
   "metadata": {},
   "source": [
    "1. Specify epi_corrections output directory"
   ]
  },
  {
   "cell_type": "code",
   "execution_count": 1,
   "metadata": {},
   "outputs": [
    {
     "data": {
      "text/plain": [
       "'../../epi_corrections_out_2019_07_02'"
      ]
     },
     "execution_count": 1,
     "metadata": {},
     "output_type": "execute_result"
    }
   ],
   "source": [
    "output_directory_suffix = \"2019_07_02\"\n",
    "# On local file system:\n",
    "corrections_base_directory = \"../../epi_corrections_out_\" + output_directory_suffix\n",
    "# On samba share (remote file sytem):\n",
    "#corrections_base_directory = \"/run/user/1000/gvfs/smb-share:server=192.168.1.207,share=hdd3tb1/data/IVS_EPI_BASELINE/epi_corrections_out_\" + output_directory_suffix\n",
    "corrections_base_directory"
   ]
  },
  {
   "cell_type": "markdown",
   "metadata": {},
   "source": [
    "2. Since nICE introduced files with spaces in their file names, \n",
    "recursively replace spaces in folders and file names.\n",
    "The fsleyes rendering bash command did not accept \n",
    "spaces in file names and directories. "
   ]
  },
  {
   "cell_type": "code",
   "execution_count": 4,
   "metadata": {},
   "outputs": [],
   "source": [
    "from utils import replace_spaces_with_underscore\n",
    "replace_spaces_with_underscore(corrections_base_directory + \"/EPI_raw_DSC\")\n",
    "replace_spaces_with_underscore(corrections_base_directory + \"/EPI_applytopup\")\n",
    "replace_spaces_with_underscore(corrections_base_directory + \"/EPI_applyepic\")"
   ]
  },
  {
   "cell_type": "markdown",
   "metadata": {},
   "source": [
    "3. Find the MNI-normalized, NordicICE intensity Normalized Relative CBV files. Can be done remotely."
   ]
  },
  {
   "cell_type": "code",
   "execution_count": 2,
   "metadata": {},
   "outputs": [],
   "source": [
    "from search import find_field_files\n",
    "\n",
    "[topup_field_files_e1, \\\n",
    " epic_field_files_e1, \\\n",
    " topup_field_files_e2, \\\n",
    " epic_field_files_e2] = find_field_files(corrections_base_directory)"
   ]
  },
  {
   "cell_type": "code",
   "execution_count": 3,
   "metadata": {},
   "outputs": [
    {
     "name": "stdout",
     "output_type": "stream",
     "text": [
      "Equal number of detected field files for topup, and epic correction methods: True\n",
      "Number of subject field files: 45\n"
     ]
    }
   ],
   "source": [
    "# A check\n",
    "print(\"Equal number of detected field files for topup, and epic correction methods: %r\" % \\\n",
    "      (len(topup_field_files_e1) == \\\n",
    "       len(topup_field_files_e2) == \\\n",
    "       len(epic_field_files_e1) == \\\n",
    "       len(epic_field_files_e2)))\n",
    "print(\"Number of subject field files: %i\" % len(topup_field_files_e1))"
   ]
  },
  {
   "cell_type": "markdown",
   "metadata": {},
   "source": [
    "4. Find the corresponding MNI label files \n",
    "(should perhaps be identical to each other, but just to make sure..)"
   ]
  },
  {
   "cell_type": "code",
   "execution_count": 4,
   "metadata": {},
   "outputs": [],
   "source": [
    "from search import find_label_files\n",
    "\n",
    "[raw_label_files_e1, \\\n",
    " topup_label_files_e1, \\\n",
    " epic_label_files_e1, \\\n",
    " raw_label_files_e2, \\\n",
    " topup_label_files_e2, \\\n",
    " epic_label_files_e2] = find_label_files(corrections_base_directory)"
   ]
  },
  {
   "cell_type": "code",
   "execution_count": 5,
   "metadata": {},
   "outputs": [
    {
     "name": "stdout",
     "output_type": "stream",
     "text": [
      "Equal number of detected label files for raw (uncorrected), topup, and epic correction methods: True\n",
      "Number of subject label files: 45\n"
     ]
    }
   ],
   "source": [
    "# A check\n",
    "print(\"Equal number of detected label files for raw (uncorrected), topup, and epic correction methods: %r\" % \\\n",
    "      (len(raw_label_files_e1) == \\\n",
    "       len(raw_label_files_e2) == \\\n",
    "       len(topup_label_files_e1) == \\\n",
    "       len(topup_label_files_e2) == \\\n",
    "       len(epic_label_files_e1) == \\\n",
    "       len(epic_label_files_e2)))\n",
    "print(\"Number of subject label files: %i\" % len(raw_label_files_e1))"
   ]
  },
  {
   "cell_type": "markdown",
   "metadata": {},
   "source": [
    "5. For the raw, topup and epic Gradient Echo (GE) and Spin Echo (SE) nrCBV data + MNI regions file, render .png images in a predefined orthographic view, then make a video. __Note:__ The following cells must run within a fsl X environment"
   ]
  },
  {
   "cell_type": "code",
   "execution_count": 14,
   "metadata": {
    "scrolled": true
   },
   "outputs": [
    {
     "name": "stdout",
     "output_type": "stream",
     "text": [
      "--Finished rendering volume 0 to .png--\n",
      "--Finished rendering volume 1 to .png--\n",
      "--Finished rendering volume 2 to .png--\n",
      "--Finished rendering volume 3 to .png--\n",
      "--Finished rendering volume 4 to .png--\n",
      "--Finished rendering volume 5 to .png--\n",
      "--Finished rendering volume 6 to .png--\n",
      "--Finished rendering volume 7 to .png--\n",
      "--Finished rendering volume 8 to .png--\n",
      "--Finished rendering volume 9 to .png--\n",
      "--Finished rendering volume 10 to .png--\n",
      "--Finished rendering volume 11 to .png--\n",
      "--Finished rendering volume 12 to .png--\n",
      "--Finished rendering volume 13 to .png--\n",
      "--Finished rendering volume 14 to .png--\n",
      "--Finished rendering volume 15 to .png--\n",
      "--Finished rendering volume 16 to .png--\n",
      "--Finished rendering volume 17 to .png--\n",
      "--Finished rendering volume 18 to .png--\n",
      "--Finished rendering volume 19 to .png--\n",
      "--Finished rendering volume 20 to .png--\n",
      "--Finished rendering volume 21 to .png--\n",
      "--Finished rendering volume 22 to .png--\n",
      "--Finished rendering volume 23 to .png--\n",
      "--Finished rendering volume 24 to .png--\n",
      "--Finished rendering volume 25 to .png--\n",
      "--Finished rendering volume 26 to .png--\n",
      "--Finished rendering volume 27 to .png--\n",
      "--Finished rendering volume 28 to .png--\n",
      "--Finished rendering volume 29 to .png--\n",
      "--Finished rendering volume 30 to .png--\n",
      "--Finished rendering volume 31 to .png--\n",
      "--Finished rendering volume 32 to .png--\n",
      "--Finished rendering volume 33 to .png--\n",
      "--Finished rendering volume 34 to .png--\n",
      "--Finished rendering volume 35 to .png--\n",
      "--Finished rendering volume 36 to .png--\n",
      "--Finished rendering volume 37 to .png--\n",
      "--Finished rendering volume 38 to .png--\n",
      "--Finished rendering volume 39 to .png--\n",
      "--Finished rendering volume 40 to .png--\n",
      "--Finished rendering volume 41 to .png--\n",
      "--Finished rendering volume 42 to .png--\n",
      "--Finished rendering volume 43 to .png--\n",
      "--Finished rendering volume 44 to .png--\n",
      "--Finished rendering pngs to video--\n"
     ]
    },
    {
     "name": "stderr",
     "output_type": "stream",
     "text": [
      "\n",
      "(wr_coregest_145923_GE-SE_EPI_SSH_v1_32CH_V2_scan_prescan_1001_901_e2_0000_prep_topup_field_postp.nii:31439): Gtk-CRITICAL **: 20:17:06.933: gtk_window_resize: assertion 'width > 0' failed\n",
      "20:17:07: Debug: Adding duplicate image handler for 'Windows bitmap file'\n",
      " WARNING       numpymodule.py   30: <module>        - Unable to load numpy_formathandler accelerator from OpenGL_accelerate\n",
      "\n",
      "(wr_coregest_120520_GE-SE_EPI_SSH_v1_32CH_V2_scan_prescan_1101_901_e2_0000_prep_topup_field_postp.nii:31461): Gtk-CRITICAL **: 20:17:12.401: gtk_window_resize: assertion 'width > 0' failed\n",
      "20:17:12: Debug: Adding duplicate image handler for 'Windows bitmap file'\n",
      " WARNING       numpymodule.py   30: <module>        - Unable to load numpy_formathandler accelerator from OpenGL_accelerate\n",
      "\n",
      "(wr_coregest_104123_GE-SE_EPI_SSH_v1_32CH_V2_scan_prescan_1001_901_e2_0000_prep_topup_field_postp.nii:31482): Gtk-CRITICAL **: 20:17:18.081: gtk_window_resize: assertion 'width > 0' failed\n",
      "20:17:18: Debug: Adding duplicate image handler for 'Windows bitmap file'\n",
      " WARNING       numpymodule.py   30: <module>        - Unable to load numpy_formathandler accelerator from OpenGL_accelerate\n",
      "\n",
      "(wr_coregest_103709_WIP_GE-SE_EPI_SSH_v1_32CH_SENSE_corr_SENSE_1001_901_e2_0000_prep_topup_field_postp.nii:31505): Gtk-CRITICAL **: 20:17:23.743: gtk_window_resize: assertion 'width > 0' failed\n",
      "20:17:23: Debug: Adding duplicate image handler for 'Windows bitmap file'\n",
      " WARNING       numpymodule.py   30: <module>        - Unable to load numpy_formathandler accelerator from OpenGL_accelerate\n",
      "\n",
      "(wr_coregest_144338_GE-SE_EPI_SSH_v1_32CH_V2_scan_prescan_1001_901_e2_0000_prep_topup_field_postp.nii:31529): Gtk-CRITICAL **: 20:17:29.070: gtk_window_resize: assertion 'width > 0' failed\n",
      "20:17:29: Debug: Adding duplicate image handler for 'Windows bitmap file'\n",
      " WARNING       numpymodule.py   30: <module>        - Unable to load numpy_formathandler accelerator from OpenGL_accelerate\n",
      "\n",
      "(wr_coregest_122905_WIP_GE-SE_EPI_SSH_v1_32CH_SENSE_corr_SENSE_1001_901_e2_0000_prep_topup_field_postp.nii:31550): Gtk-CRITICAL **: 20:17:34.649: gtk_window_resize: assertion 'width > 0' failed\n",
      "20:17:34: Debug: Adding duplicate image handler for 'Windows bitmap file'\n",
      " WARNING       numpymodule.py   30: <module>        - Unable to load numpy_formathandler accelerator from OpenGL_accelerate\n",
      "\n",
      "(wr_coregest_130326_GE-SE_EPI_SSH_v1_32CH_V2_scan_prescan_1401_901_e2_0000_prep_topup_field_postp.nii:31571): Gtk-CRITICAL **: 20:17:40.466: gtk_window_resize: assertion 'width > 0' failed\n",
      "20:17:40: Debug: Adding duplicate image handler for 'Windows bitmap file'\n",
      " WARNING       numpymodule.py   30: <module>        - Unable to load numpy_formathandler accelerator from OpenGL_accelerate\n",
      "\n",
      "(wr_coregest_101356_GE-SE_EPI_SSH_v1_32CH_V2_scan_prescan_1001_901_e2_0000_prep_topup_field_postp.nii:31592): Gtk-CRITICAL **: 20:17:46.068: gtk_window_resize: assertion 'width > 0' failed\n",
      "20:17:46: Debug: Adding duplicate image handler for 'Windows bitmap file'\n",
      " WARNING       numpymodule.py   30: <module>        - Unable to load numpy_formathandler accelerator from OpenGL_accelerate\n",
      "\n",
      "(wr_coregest_150118_GE-SE_EPI_SSH_v1_32CH_V2_scan_prescan_1201_1101_e2_0000_prep_topup_field_postp.nii:31622): Gtk-CRITICAL **: 20:17:52.001: gtk_window_resize: assertion 'width > 0' failed\n",
      "20:17:52: Debug: Adding duplicate image handler for 'Windows bitmap file'\n",
      " WARNING       numpymodule.py   30: <module>        - Unable to load numpy_formathandler accelerator from OpenGL_accelerate\n",
      "\n",
      "(wr_coregest_82213_WIP_GE-SE_EPI_SSH_v1_32CH_SENSE_corr_SENSE_1001_901_e2_0000_prep_topup_field_postp.nii:31646): Gtk-CRITICAL **: 20:17:57.632: gtk_window_resize: assertion 'width > 0' failed\n",
      "20:17:57: Debug: Adding duplicate image handler for 'Windows bitmap file'\n",
      " WARNING       numpymodule.py   30: <module>        - Unable to load numpy_formathandler accelerator from OpenGL_accelerate\n",
      "\n",
      "(wr_coregest_145705_GE-SE_EPI_SSH_v1_32CH_V2_scan_prescan_1001_901_e2_0000_prep_topup_field_postp.nii:31667): Gtk-CRITICAL **: 20:18:03.318: gtk_window_resize: assertion 'width > 0' failed\n",
      "20:18:03: Debug: Adding duplicate image handler for 'Windows bitmap file'\n",
      " WARNING       numpymodule.py   30: <module>        - Unable to load numpy_formathandler accelerator from OpenGL_accelerate\n",
      "\n",
      "(wr_coregest_144657_GE-SE_EPI_SSH_v1_32CH_V2_scan_prescan_1001_901_e2_0000_prep_topup_field_postp.nii:31688): Gtk-CRITICAL **: 20:18:08.971: gtk_window_resize: assertion 'width > 0' failed\n",
      "20:18:09: Debug: Adding duplicate image handler for 'Windows bitmap file'\n",
      " WARNING       numpymodule.py   30: <module>        - Unable to load numpy_formathandler accelerator from OpenGL_accelerate\n",
      "\n",
      "(wr_coregest_120602_WIP_GE-SE_EPI_SSH_v1_32CH_SENSE_corr_SENSE_701_601_e2_0000_prep_topup_field_postp.nii:31709): Gtk-CRITICAL **: 20:18:14.356: gtk_window_resize: assertion 'width > 0' failed\n",
      "20:18:14: Debug: Adding duplicate image handler for 'Windows bitmap file'\n",
      " WARNING       numpymodule.py   30: <module>        - Unable to load numpy_formathandler accelerator from OpenGL_accelerate\n",
      "\n",
      "(wr_coregest_141709_GE-SE_EPI_SSH_v1_32CH_V2_scan_prescan_1001_901_e2_0000_prep_topup_field_postp.nii:31730): Gtk-CRITICAL **: 20:18:19.716: gtk_window_resize: assertion 'width > 0' failed\n",
      "20:18:19: Debug: Adding duplicate image handler for 'Windows bitmap file'\n",
      " WARNING       numpymodule.py   30: <module>        - Unable to load numpy_formathandler accelerator from OpenGL_accelerate\n",
      "\n",
      "(wr_coregest_144623_GE-SE_EPI_SSH_v1_32CH_V2_scan_prescan_1001_901_e2_0000_prep_topup_field_postp.nii:31751): Gtk-CRITICAL **: 20:18:25.195: gtk_window_resize: assertion 'width > 0' failed\n",
      "20:18:25: Debug: Adding duplicate image handler for 'Windows bitmap file'\n",
      " WARNING       numpymodule.py   30: <module>        - Unable to load numpy_formathandler accelerator from OpenGL_accelerate\n",
      "\n",
      "(wr_coregest_142048_GE-SE_EPI_SSH_v1_32CH_V2_scan_prescan_1001_901_e2_0000_prep_topup_field_postp.nii:31775): Gtk-CRITICAL **: 20:18:30.823: gtk_window_resize: assertion 'width > 0' failed\n",
      "20:18:30: Debug: Adding duplicate image handler for 'Windows bitmap file'\n",
      " WARNING       numpymodule.py   30: <module>        - Unable to load numpy_formathandler accelerator from OpenGL_accelerate\n",
      "\n",
      "(wr_coregest_120912_GE-SE_EPI_SSH_v1_32CH_V2_scan_prescan_1001_901_e2_0000_prep_topup_field_postp.nii:31796): Gtk-CRITICAL **: 20:18:36.378: gtk_window_resize: assertion 'width > 0' failed\n",
      "20:18:36: Debug: Adding duplicate image handler for 'Windows bitmap file'\n",
      " WARNING       numpymodule.py   30: <module>        - Unable to load numpy_formathandler accelerator from OpenGL_accelerate\n",
      "\n",
      "(wr_coregest_123412_WIP_GE-SE_EPI_SSH_v1_32CH_SENSE_corr_SENSE_901_801_e2_0000_prep_topup_field_postp.nii:31817): Gtk-CRITICAL **: 20:18:42.029: gtk_window_resize: assertion 'width > 0' failed\n",
      "20:18:42: Debug: Adding duplicate image handler for 'Windows bitmap file'\n",
      " WARNING       numpymodule.py   30: <module>        - Unable to load numpy_formathandler accelerator from OpenGL_accelerate\n",
      "\n",
      "(wr_coregest_122838_GE-SE_EPI_SSH_v1_32CH_V2_scan_prescan_1001_901_e2_0000_prep_topup_field_postp.nii:31838): Gtk-CRITICAL **: 20:18:47.739: gtk_window_resize: assertion 'width > 0' failed\n",
      "20:18:47: Debug: Adding duplicate image handler for 'Windows bitmap file'\n",
      " WARNING       numpymodule.py   30: <module>        - Unable to load numpy_formathandler accelerator from OpenGL_accelerate\n",
      "\n",
      "(wr_coregest_122753_GE-SE_EPI_SSH_v1_32CH_V2_scan_prescan_1001_901_e2_0000_prep_topup_field_postp.nii:31869): Gtk-CRITICAL **: 20:18:52.967: gtk_window_resize: assertion 'width > 0' failed\n",
      "20:18:53: Debug: Adding duplicate image handler for 'Windows bitmap file'\n",
      " WARNING       numpymodule.py   30: <module>        - Unable to load numpy_formathandler accelerator from OpenGL_accelerate\n",
      "\n",
      "(wr_coregest_144607_WIP_GE-SE_EPI_SSH_v1_32CH_SENSE_corr_SENSE_701_601_e2_0000_prep_topup_field_postp.nii:31893): Gtk-CRITICAL **: 20:18:58.359: gtk_window_resize: assertion 'width > 0' failed\n",
      "20:18:58: Debug: Adding duplicate image handler for 'Windows bitmap file'\n",
      " WARNING       numpymodule.py   30: <module>        - Unable to load numpy_formathandler accelerator from OpenGL_accelerate\n",
      "\n",
      "(wr_coregest_144240_GE-SE_EPI_SSH_v1_32CH_V2_scan_prescan_1001_901_e2_0000_prep_topup_field_postp.nii:31914): Gtk-CRITICAL **: 20:19:04.163: gtk_window_resize: assertion 'width > 0' failed\n",
      "20:19:04: Debug: Adding duplicate image handler for 'Windows bitmap file'\n",
      " WARNING       numpymodule.py   30: <module>        - Unable to load numpy_formathandler accelerator from OpenGL_accelerate\n",
      "\n",
      "(wr_coregest_95540_GE-SE_EPI_SSH_v1_32CH_V2_scan_prescan_1001_901_e2_0000_prep_topup_field_postp.nii:31935): Gtk-CRITICAL **: 20:19:09.768: gtk_window_resize: assertion 'width > 0' failed\n",
      "20:19:09: Debug: Adding duplicate image handler for 'Windows bitmap file'\n",
      " WARNING       numpymodule.py   30: <module>        - Unable to load numpy_formathandler accelerator from OpenGL_accelerate\n",
      "\n",
      "(wr_coregest_100458_GE-SE_EPI_SSH_v1_32CH_V2_scan_prescan_1001_901_e2_0000_prep_topup_field_postp.nii:31956): Gtk-CRITICAL **: 20:19:15.327: gtk_window_resize: assertion 'width > 0' failed\n",
      "20:19:15: Debug: Adding duplicate image handler for 'Windows bitmap file'\n",
      " WARNING       numpymodule.py   30: <module>        - Unable to load numpy_formathandler accelerator from OpenGL_accelerate\n",
      "\n",
      "(wr_coregest_143118_GE-SE_EPI_SSH_v1_32CH_V2_scan_prescan_1001_901_e2_0000_prep_topup_field_postp.nii:31977): Gtk-CRITICAL **: 20:19:20.975: gtk_window_resize: assertion 'width > 0' failed\n",
      "20:19:21: Debug: Adding duplicate image handler for 'Windows bitmap file'\n",
      " WARNING       numpymodule.py   30: <module>        - Unable to load numpy_formathandler accelerator from OpenGL_accelerate\n",
      "\n",
      "(wr_coregest_132452_GE-SE_EPI_SSH_v1_32CH_V2_scan_prescan_1001_901_e2_0000_prep_topup_field_postp.nii:31997): Gtk-CRITICAL **: 20:19:26.594: gtk_window_resize: assertion 'width > 0' failed\n",
      "20:19:26: Debug: Adding duplicate image handler for 'Windows bitmap file'\n",
      " WARNING       numpymodule.py   30: <module>        - Unable to load numpy_formathandler accelerator from OpenGL_accelerate\n",
      "\n",
      "(wr_coregest_150510_WIP_GE-SE_EPI_SSH_v1_32CH_SENSE_corr_SENSE_701_601_e2_0000_prep_topup_field_postp.nii:32021): Gtk-CRITICAL **: 20:19:32.335: gtk_window_resize: assertion 'width > 0' failed\n",
      "20:19:32: Debug: Adding duplicate image handler for 'Windows bitmap file'\n",
      " WARNING       numpymodule.py   30: <module>        - Unable to load numpy_formathandler accelerator from OpenGL_accelerate\n",
      "\n",
      "(wr_coregest_142832_GE-SE_EPI_SSH_v1_32CH_V2_scan_prescan_1001_901_e2_0000_prep_topup_field_postp.nii:32041): Gtk-CRITICAL **: 20:19:37.823: gtk_window_resize: assertion 'width > 0' failed\n",
      "20:19:37: Debug: Adding duplicate image handler for 'Windows bitmap file'\n",
      " WARNING       numpymodule.py   30: <module>        - Unable to load numpy_formathandler accelerator from OpenGL_accelerate\n",
      "\n",
      "(wr_coregest_140627_GE-SE_EPI_SSH_v1_32CH_V2_scan_prescan_1001_901_e2_0000_prep_topup_field_postp.nii:32062): Gtk-CRITICAL **: 20:19:43.536: gtk_window_resize: assertion 'width > 0' failed\n",
      "20:19:43: Debug: Adding duplicate image handler for 'Windows bitmap file'\n",
      " WARNING       numpymodule.py   30: <module>        - Unable to load numpy_formathandler accelerator from OpenGL_accelerate\n",
      "\n",
      "(wr_coregest_154038_WIP_GE-SE_EPI_SSH_v1_32CH_SENSE_corr_SENSE_901_801_e2_0000_prep_topup_field_postp.nii:32083): Gtk-CRITICAL **: 20:19:49.086: gtk_window_resize: assertion 'width > 0' failed\n",
      "20:19:49: Debug: Adding duplicate image handler for 'Windows bitmap file'\n",
      " WARNING       numpymodule.py   30: <module>        - Unable to load numpy_formathandler accelerator from OpenGL_accelerate\n",
      "\n",
      "(wr_coregest_135702_WIP_GE-SE_EPI_SSH_v1_32CH_SENSE_corr_SENSE_1001_901_e2_0000_prep_topup_field_postp.nii:32113): Gtk-CRITICAL **: 20:19:54.841: gtk_window_resize: assertion 'width > 0' failed\n",
      "20:19:54: Debug: Adding duplicate image handler for 'Windows bitmap file'\n",
      " WARNING       numpymodule.py   30: <module>        - Unable to load numpy_formathandler accelerator from OpenGL_accelerate\n",
      "\n",
      "(wr_coregest_94900_GE-SE_EPI_SSH_v1_32CH_V2_scan_prescan_1001_901_e2_0000_prep_topup_field_postp.nii:32137): Gtk-CRITICAL **: 20:20:00.448: gtk_window_resize: assertion 'width > 0' failed\n",
      "20:20:00: Debug: Adding duplicate image handler for 'Windows bitmap file'\n",
      " WARNING       numpymodule.py   30: <module>        - Unable to load numpy_formathandler accelerator from OpenGL_accelerate\n",
      "\n",
      "(wr_coregest_145901_WIP_GE-SE_EPI_SSH_16CH_SENSE_corr_SENSE_901_801_e2_0000_prep_topup_field_postp.nii:32158): Gtk-CRITICAL **: 20:20:05.885: gtk_window_resize: assertion 'width > 0' failed\n",
      "20:20:06: Debug: Adding duplicate image handler for 'Windows bitmap file'\n",
      " WARNING       numpymodule.py   30: <module>        - Unable to load numpy_formathandler accelerator from OpenGL_accelerate\n",
      "\n",
      "(wr_coregest_131148_GE-SE_EPI_SSH_v1_32CH_V2_scan_prescan_1001_901_e2_0000_prep_topup_field_postp.nii:32179): Gtk-CRITICAL **: 20:20:11.790: gtk_window_resize: assertion 'width > 0' failed\n",
      "20:20:11: Debug: Adding duplicate image handler for 'Windows bitmap file'\n",
      " WARNING       numpymodule.py   30: <module>        - Unable to load numpy_formathandler accelerator from OpenGL_accelerate\n",
      "\n",
      "(wr_coregest_142930_GE-SE_EPI_SSH_v1_32CH_V2_scan_prescan_1001_901_e2_0000_prep_topup_field_postp.nii:32201): Gtk-CRITICAL **: 20:20:17.540: gtk_window_resize: assertion 'width > 0' failed\n",
      "20:20:17: Debug: Adding duplicate image handler for 'Windows bitmap file'\n",
      " WARNING       numpymodule.py   30: <module>        - Unable to load numpy_formathandler accelerator from OpenGL_accelerate\n",
      "\n",
      "(wr_coregest_141033_GE-SE_EPI_SSH_v1_32CH_V2_scan_prescan_1101_1001_e2_0000_prep_topup_field_postp.nii:32221): Gtk-CRITICAL **: 20:20:23.077: gtk_window_resize: assertion 'width > 0' failed\n",
      "20:20:23: Debug: Adding duplicate image handler for 'Windows bitmap file'\n",
      " WARNING       numpymodule.py   30: <module>        - Unable to load numpy_formathandler accelerator from OpenGL_accelerate\n",
      "\n",
      "(wr_coregest_122448_GE-SE_EPI_SSH_v1_32CH_V2_scan_prescan_1001_901_e2_0000_prep_topup_field_postp.nii:32242): Gtk-CRITICAL **: 20:20:28.455: gtk_window_resize: assertion 'width > 0' failed\n",
      "20:20:28: Debug: Adding duplicate image handler for 'Windows bitmap file'\n",
      " WARNING       numpymodule.py   30: <module>        - Unable to load numpy_formathandler accelerator from OpenGL_accelerate\n",
      "\n",
      "(wr_coregest_104935_WIP_GE-SE_EPI_SSH_v1_32CH_SENSE_corr_SENSE_801_701_e2_0000_prep_topup_field_postp.nii:32266): Gtk-CRITICAL **: 20:20:33.777: gtk_window_resize: assertion 'width > 0' failed\n",
      "20:20:33: Debug: Adding duplicate image handler for 'Windows bitmap file'\n",
      " WARNING       numpymodule.py   30: <module>        - Unable to load numpy_formathandler accelerator from OpenGL_accelerate\n",
      "\n",
      "(wr_coregest_132957_WIP_GE-SE_EPI_SSH_v1_32CH_SENSE_corr_SENSE_801_701_e2_0000_prep_topup_field_postp.nii:32287): Gtk-CRITICAL **: 20:20:39.444: gtk_window_resize: assertion 'width > 0' failed\n",
      "20:20:39: Debug: Adding duplicate image handler for 'Windows bitmap file'\n",
      " WARNING       numpymodule.py   30: <module>        - Unable to load numpy_formathandler accelerator from OpenGL_accelerate\n",
      "\n",
      "(wr_coregest_141049_WIP_GE-SE_EPI_SSH_v1_32CH_SENSE_corr_SENSE_701_601_e2_0000_prep_topup_field_postp.nii:32307): Gtk-CRITICAL **: 20:20:44.956: gtk_window_resize: assertion 'width > 0' failed\n",
      "20:20:45: Debug: Adding duplicate image handler for 'Windows bitmap file'\n",
      " WARNING       numpymodule.py   30: <module>        - Unable to load numpy_formathandler accelerator from OpenGL_accelerate\n",
      "\n",
      "(wr_coregest_134014_GE-SE_EPI_SSH_v1_32CH_V2_scan_prescan_1001_901_e2_0000_prep_topup_field_postp.nii:32329): Gtk-CRITICAL **: 20:20:50.578: gtk_window_resize: assertion 'width > 0' failed\n",
      "20:20:50: Debug: Adding duplicate image handler for 'Windows bitmap file'\n",
      " WARNING       numpymodule.py   30: <module>        - Unable to load numpy_formathandler accelerator from OpenGL_accelerate\n",
      "\n",
      "(wr_coregest_132210_WIP_GE-SE_EPI_SSH_v1_32CH_SENSE_corr_SENSE_801_701_e2_0000_prep_topup_field_postp.nii:32359): Gtk-CRITICAL **: 20:20:56.000: gtk_window_resize: assertion 'width > 0' failed\n",
      "20:20:56: Debug: Adding duplicate image handler for 'Windows bitmap file'\n",
      " WARNING       numpymodule.py   30: <module>        - Unable to load numpy_formathandler accelerator from OpenGL_accelerate\n",
      "\n",
      "(wr_coregest_133945_GE-SE_EPI_SSH_v1_32CH_V2_scan_prescan_1001_901_e2_0000_prep_topup_field_postp.nii:32382): Gtk-CRITICAL **: 20:21:01.648: gtk_window_resize: assertion 'width > 0' failed\n",
      "20:21:01: Debug: Adding duplicate image handler for 'Windows bitmap file'\n",
      " WARNING       numpymodule.py   30: <module>        - Unable to load numpy_formathandler accelerator from OpenGL_accelerate\n",
      "\n",
      "(wr_coregest_101256_WIP_GE-SE_EPI_SSH_v1_32CH_SENSE_corr_SENSE_701_601_e2_0000_prep_topup_field_postp.nii:32402): Gtk-CRITICAL **: 20:21:07.064: gtk_window_resize: assertion 'width > 0' failed\n",
      "20:21:07: Debug: Adding duplicate image handler for 'Windows bitmap file'\n",
      " WARNING       numpymodule.py   30: <module>        - Unable to load numpy_formathandler accelerator from OpenGL_accelerate\n",
      "\n",
      "(wr_coregest_123601_GE-SE_EPI_SSH_v1_32CH_V2_scan_prescan_1001_901_e2_0000_prep_topup_field_postp.nii:32423): Gtk-CRITICAL **: 20:21:12.578: gtk_window_resize: assertion 'width > 0' failed\n",
      "20:21:12: Debug: Adding duplicate image handler for 'Windows bitmap file'\n",
      " WARNING       numpymodule.py   30: <module>        - Unable to load numpy_formathandler accelerator from OpenGL_accelerate\n",
      "ffmpeg version 4.0.4-0ubuntu1 Copyright (c) 2000-2019 the FFmpeg developers\n",
      "  built with gcc 8 (Ubuntu 8.2.0-7ubuntu1)\n",
      "  configuration: --prefix=/usr --extra-version=0ubuntu1 --toolchain=hardened --libdir=/usr/lib/x86_64-linux-gnu --incdir=/usr/include/x86_64-linux-gnu --arch=amd64 --enable-gpl --disable-stripping --enable-avresample --disable-filter=resample --enable-avisynth --enable-gnutls --enable-ladspa --enable-libaom --enable-libass --enable-libbluray --enable-libbs2b --enable-libcaca --enable-libcdio --enable-libcodec2 --enable-libflite --enable-libfontconfig --enable-libfreetype --enable-libfribidi --enable-libgme --enable-libgsm --enable-libjack --enable-libmp3lame --enable-libmysofa --enable-libopenjpeg --enable-libopenmpt --enable-libopus --enable-libpulse --enable-librsvg --enable-librubberband --enable-libshine --enable-libsnappy --enable-libsoxr --enable-libspeex --enable-libssh --enable-libtheora --enable-libtwolame --enable-libvorbis --enable-libvpx --enable-libwavpack --enable-libwebp --enable-libx265 --enable-libxml2 --enable-libxvid --enable-libzmq --enable-libzvbi --enable-lv2 --enable-omx --enable-openal --enable-opengl --enable-sdl2 --enable-libdc1394 --enable-libdrm --enable-libiec61883 --enable-chromaprint --enable-frei0r --enable-libopencv --enable-libx264 --enable-shared\n",
      "  libavutil      56. 14.100 / 56. 14.100\n",
      "  libavcodec     58. 18.100 / 58. 18.100\n",
      "  libavformat    58. 12.100 / 58. 12.100\n",
      "  libavdevice    58.  3.100 / 58.  3.100\n",
      "  libavfilter     7. 16.100 /  7. 16.100\n",
      "  libavresample   4.  0.  0 /  4.  0.  0\n",
      "  libswscale      5.  1.100 /  5.  1.100\n",
      "  libswresample   3.  1.100 /  3.  1.100\n",
      "  libpostproc    55.  1.100 / 55.  1.100\n",
      "Input #0, image2, from '../../epi_corrections_out_2019_07_02/render_fields/TOPUP/e2/output_%03d.png':\n",
      "  Duration: 00:00:45.00, start: 0.000000, bitrate: N/A\n",
      "    Stream #0:0: Video: png, rgba(pc), 800x600 [SAR 3937:3937 DAR 4:3], 1 fps, 1 tbr, 1 tbn, 1 tbc\n",
      "Stream mapping:\n",
      "  Stream #0:0 -> #0:0 (png (native) -> h264 (libx264))\n",
      "Press [q] to stop, [?] for help\n",
      "[libx264 @ 0x561e2e6eb400] using SAR=1/1\n",
      "[libx264 @ 0x561e2e6eb400] using cpu capabilities: MMX2 SSE2Fast SSSE3 SSE4.1 Cache64\n",
      "[libx264 @ 0x561e2e6eb400] profile High, level 4.0\n",
      "[libx264 @ 0x561e2e6eb400] 264 - core 152 r2854 e9a5903 - H.264/MPEG-4 AVC codec - Copyleft 2003-2017 - http://www.videolan.org/x264.html - options: cabac=1 ref=5 deblock=1:0:0 analyse=0x3:0x113 me=hex subme=8 psy=1 psy_rd=1.00:0.00 mixed_ref=1 me_range=16 chroma_me=1 trellis=2 8x8dct=1 cqm=0 deadzone=21,11 fast_pskip=1 chroma_qp_offset=-2 threads=6 lookahead_threads=1 sliced_threads=0 nr=0 decimate=1 interlaced=0 bluray_compat=0 constrained_intra=0 bframes=3 b_pyramid=2 b_adapt=1 b_bias=0 direct=3 weightb=1 open_gop=0 weightp=2 keyint=250 keyint_min=1 scenecut=40 intra_refresh=0 rc_lookahead=50 rc=crf mbtree=1 crf=1.0 qcomp=0.60 qpmin=0 qpmax=69 qpstep=4 ip_ratio=1.40 aq=1:1.00\n",
      "Output #0, mp4, to '../../epi_corrections_out_2019_07_02/render_fields/TOPUP/e2/video.mp4':\n",
      "  Metadata:\n",
      "    encoder         : Lavf58.12.100\n",
      "    Stream #0:0: Video: h264 (libx264) (avc1 / 0x31637661), yuv420p, 800x600 [SAR 1:1 DAR 4:3], q=-1--1, 1 fps, 16384 tbn, 1 tbc\n",
      "    Metadata:\n",
      "      encoder         : Lavc58.18.100 libx264\n",
      "    Side data:\n",
      "      cpb: bitrate max/min/avg: 0/0/0 buffer size: 0 vbv_delay: -1\n",
      "frame=   45 fps= 12 q=-1.0 Lsize=    3065kB time=00:00:42.00 bitrate= 597.8kbits/s speed=10.7x    \n",
      "video:3063kB audio:0kB subtitle:0kB other streams:0kB global headers:0kB muxing overhead: 0.045362%\n",
      "[libx264 @ 0x561e2e6eb400] frame I:1     Avg QP: 0.22  size: 93220\n",
      "[libx264 @ 0x561e2e6eb400] frame P:13    Avg QP: 1.16  size: 70175\n",
      "[libx264 @ 0x561e2e6eb400] frame B:31    Avg QP: 2.34  size: 68736\n",
      "[libx264 @ 0x561e2e6eb400] consecutive B-frames:  4.4%  8.9%  6.7% 80.0%\n",
      "[libx264 @ 0x561e2e6eb400] mb I  I16..4: 57.2%  0.1% 42.7%\n",
      "[libx264 @ 0x561e2e6eb400] mb P  I16..4:  3.2%  0.2% 15.1%  P16..4:  9.5%  4.7%  4.8%  0.0%  0.0%    skip:62.4%\n",
      "[libx264 @ 0x561e2e6eb400] mb B  I16..4:  1.3%  0.1% 14.9%  B16..8:  7.2%  3.3%  4.5%  direct: 5.0%  skip:63.7%  L0:60.3% L1:28.9% BI:10.8%\n",
      "[libx264 @ 0x561e2e6eb400] 8x8 transform intra:0.8% inter:8.3%\n",
      "[libx264 @ 0x561e2e6eb400] direct mvs  spatial:87.1% temporal:12.9%\n",
      "[libx264 @ 0x561e2e6eb400] coded y,uvDC,uvAC intra: 80.0% 79.2% 79.2% inter: 16.8% 17.1% 17.1%\n",
      "[libx264 @ 0x561e2e6eb400] i16 v,h,dc,p: 79% 18%  2%  1%\n",
      "[libx264 @ 0x561e2e6eb400] i8 v,h,dc,ddl,ddr,vr,hd,vl,hu: 41% 28% 15%  0%  2%  6%  2%  3%  3%\n",
      "[libx264 @ 0x561e2e6eb400] i4 v,h,dc,ddl,ddr,vr,hd,vl,hu: 42% 35%  9%  3%  3%  2%  2%  2%  2%\n",
      "[libx264 @ 0x561e2e6eb400] i8c dc,h,v,p: 34% 25% 25% 16%\n",
      "[libx264 @ 0x561e2e6eb400] Weighted P-Frames: Y:0.0% UV:0.0%\n",
      "[libx264 @ 0x561e2e6eb400] ref P L0: 30.9%  6.2% 19.0% 20.8% 23.0%\n",
      "[libx264 @ 0x561e2e6eb400] ref B L0: 49.0% 28.1% 18.6%  4.3%\n",
      "[libx264 @ 0x561e2e6eb400] ref B L1: 82.8% 17.2%\n",
      "[libx264 @ 0x561e2e6eb400] kb/s:557.56\n"
     ]
    }
   ],
   "source": [
    "%%bash -s \"{\" \".join(topup_field_files_e1)}\" \"{\" \".join(epic_field_files_e1)}\" \"{\" \".join(topup_field_files_e2)}\" \"{\" \".join(epic_field_files_e2)}\" \"{\" \".join(topup_label_files_e1)}\" \"{\" \".join(epic_label_files_e1)}\" \"{\" \".join(topup_label_files_e2)}\" \"{\" \".join(epic_label_files_e2)}\"\n",
    "IFS=' ' read -r -a topup_field_files_e1 <<< \"$1\"\n",
    "IFS=' ' read -r -a epic_field_files_e1 <<< \"$2\"\n",
    "IFS=' ' read -r -a topup_field_files_e2 <<< \"$3\"\n",
    "IFS=' ' read -r -a epic_field_files_e2 <<< \"$4\"\n",
    "IFS=' ' read -r -a topup_label_files_e1 <<< \"$5\"\n",
    "IFS=' ' read -r -a epic_label_files_e1 <<< \"$6\"\n",
    "IFS=' ' read -r -a topup_label_files_e2 <<< \"$7\"\n",
    "IFS=' ' read -r -a epic_label_files_e2 <<< \"$8\"\n",
    "render() {\n",
    "    local -n _field_files=$1\n",
    "    local -n _label_files=$2\n",
    "    local -n _render_dir=$3\n",
    "    \n",
    "    # Remove existing render directory.\n",
    "    if [ -d \"$_render_dir\" ]; then rm -rd \"$_render_dir\"; fi\n",
    "    \n",
    "    mkdir -p \"$_render_dir\"\n",
    "    \n",
    "    for index in \"${!_field_files[@]}\"\n",
    "    do\n",
    "        field_file=\"${_field_files[index]}\"\n",
    "        label_file=\"${_label_files[index]}\"\n",
    "        \n",
    "        field_file_name=\"$(basename $field_file)\"\n",
    "        label_file_name=\"$(basename $label_file)\"\n",
    "        \n",
    "        render_command='fsleyes \n",
    "            render \n",
    "            --outfile \"'$_render_dir'/'output_$(printf \"%03d\\n\" $index)'\" \n",
    "            --scene ortho \n",
    "            --worldLoc 9.918212890625e-05 -18.000099182128906 7.999900817871094 \n",
    "            --displaySpace \n",
    "            '$field_file' \n",
    "            --xcentre  0.00000  0.00000 \n",
    "            --ycentre  0.00000  0.00000 \n",
    "            --zcentre  0.00000 -0.00000 \n",
    "            --xzoom 100.0 \n",
    "            --yzoom 100.0 \n",
    "            --zzoom 100.0 \n",
    "            --hideLabels \n",
    "            --labelSize 14 \n",
    "            --layout horizontal \n",
    "            --hideCursor \n",
    "            --bgColour 0.0 0.0 0.0 \n",
    "            --fgColour 1.0 1.0 1.0 \n",
    "            --cursorColour 0.0 1.0 0.0 \n",
    "            --showColourBar \n",
    "            --colourBarLocation top \n",
    "            --colourBarLabelSide top-left \n",
    "            --performance 3 \n",
    "            '$label_file' \n",
    "            --name '$label_file_name' \n",
    "            --overlayType volume \n",
    "            --alpha 100.0 \n",
    "            --brightness 50.0 \n",
    "            --contrast 50.0 \n",
    "            --cmap greyscale \n",
    "            --negativeCmap greyscale \n",
    "            --displayRange 0.0 207.0 \n",
    "            --clippingRange 0.0 209.07 \n",
    "            --gamma 0.0 \n",
    "            --cmapResolution 256 \n",
    "            --interpolation none \n",
    "            --numSteps 100 \n",
    "            --blendFactor 0.1 \n",
    "            --smoothing 0 \n",
    "            --resolution 100 \n",
    "            --numInnerSteps 10 \n",
    "            --clipMode intersection \n",
    "            --volume 0 \n",
    "            '$field_file' \n",
    "            --name '$field_file_name' \n",
    "            --overlayType volume \n",
    "            --alpha 79.33333334031825 \n",
    "            --brightness 54.09163686077013 \n",
    "            --contrast 49.09314381711701 \n",
    "            --cmap render3 \n",
    "            --negativeCmap greyscale \n",
    "            --displayRange -6.0 6.0 \n",
    "            --clippingRange -6.0 12.869085369110108 \n",
    "            --gamma 0.0 --cmapResolution 256 \n",
    "            --interpolation none \n",
    "            --numSteps 100 \n",
    "            --blendFactor 0.1 \n",
    "            --smoothing 0 \n",
    "            --resolution 100 \n",
    "            --numInnerSteps 10 \n",
    "            --clipMode intersection \n",
    "            --volume 0'\n",
    "        echo $render_command >> \"$_render_dir/commands.txt\"\n",
    "        #echo $render_command\n",
    "        eval $render_command\n",
    "        echo \"--Finished rendering volume $index to .png--\"\n",
    "    done\n",
    "    ffmpeg -framerate 1 -i \"$_render_dir\"/output_%03d.png -vf \"pad=ceil(iw/2)*2:ceil(ih/2)*2\" -c:v libx264 -preset slow -profile:v high -level:v 4.0 -pix_fmt yuv420p -crf 1 \"$_render_dir\"/video.mp4\n",
    "    echo \"--Finished rendering pngs to video--\"\n",
    "}\n",
    "render_dir_topup_field_e1=\"../../epi_corrections_out_2019_07_02/render_fields/TOPUP/e1\"\n",
    "render topup_field_files_e1 topup_label_files_e1 render_dir_topup_field_e1\n",
    "sleep 2 # Sleep 1 second; this was necessary otherwise the next call of render() function did seem to get emtpy render dir argument...\n",
    "render_dir_topup_field_e2=\"../../epi_corrections_out_2019_07_02/render_fields/TOPUP/e2\"\n",
    "render topup_field_files_e2 topup_label_files_e2 render_dir_topup_field_e2"
   ]
  },
  {
   "cell_type": "code",
   "execution_count": 15,
   "metadata": {
    "scrolled": true
   },
   "outputs": [
    {
     "name": "stdout",
     "output_type": "stream",
     "text": [
      "--Finished rendering volume 0 to .png--\n",
      "--Finished rendering volume 1 to .png--\n",
      "--Finished rendering volume 2 to .png--\n",
      "--Finished rendering volume 3 to .png--\n",
      "--Finished rendering volume 4 to .png--\n",
      "--Finished rendering volume 5 to .png--\n",
      "--Finished rendering volume 6 to .png--\n",
      "--Finished rendering volume 7 to .png--\n",
      "--Finished rendering volume 8 to .png--\n",
      "--Finished rendering volume 9 to .png--\n",
      "--Finished rendering volume 10 to .png--\n",
      "--Finished rendering volume 11 to .png--\n",
      "--Finished rendering volume 12 to .png--\n",
      "--Finished rendering volume 13 to .png--\n",
      "--Finished rendering volume 14 to .png--\n",
      "--Finished rendering volume 15 to .png--\n",
      "--Finished rendering volume 16 to .png--\n",
      "--Finished rendering volume 17 to .png--\n",
      "--Finished rendering volume 18 to .png--\n",
      "--Finished rendering volume 19 to .png--\n",
      "--Finished rendering volume 20 to .png--\n",
      "--Finished rendering volume 21 to .png--\n",
      "--Finished rendering volume 22 to .png--\n",
      "--Finished rendering volume 23 to .png--\n",
      "--Finished rendering volume 24 to .png--\n",
      "--Finished rendering volume 25 to .png--\n",
      "--Finished rendering volume 26 to .png--\n",
      "--Finished rendering volume 27 to .png--\n",
      "--Finished rendering volume 28 to .png--\n",
      "--Finished rendering volume 29 to .png--\n",
      "--Finished rendering volume 30 to .png--\n",
      "--Finished rendering volume 31 to .png--\n",
      "--Finished rendering volume 32 to .png--\n",
      "--Finished rendering volume 33 to .png--\n",
      "--Finished rendering volume 34 to .png--\n",
      "--Finished rendering volume 35 to .png--\n",
      "--Finished rendering volume 36 to .png--\n",
      "--Finished rendering volume 37 to .png--\n",
      "--Finished rendering volume 38 to .png--\n",
      "--Finished rendering volume 39 to .png--\n",
      "--Finished rendering volume 40 to .png--\n",
      "--Finished rendering volume 41 to .png--\n",
      "--Finished rendering volume 42 to .png--\n",
      "--Finished rendering volume 43 to .png--\n",
      "--Finished rendering volume 44 to .png--\n",
      "--Finished rendering pngs to video--\n",
      "--Finished rendering volume 0 to .png--\n",
      "--Finished rendering volume 1 to .png--\n",
      "--Finished rendering volume 2 to .png--\n",
      "--Finished rendering volume 3 to .png--\n",
      "--Finished rendering volume 4 to .png--\n",
      "--Finished rendering volume 5 to .png--\n",
      "--Finished rendering volume 6 to .png--\n",
      "--Finished rendering volume 7 to .png--\n",
      "--Finished rendering volume 8 to .png--\n",
      "--Finished rendering volume 9 to .png--\n",
      "--Finished rendering volume 10 to .png--\n",
      "--Finished rendering volume 11 to .png--\n",
      "--Finished rendering volume 12 to .png--\n",
      "--Finished rendering volume 13 to .png--\n",
      "--Finished rendering volume 14 to .png--\n",
      "--Finished rendering volume 15 to .png--\n",
      "--Finished rendering volume 16 to .png--\n",
      "--Finished rendering volume 17 to .png--\n",
      "--Finished rendering volume 18 to .png--\n",
      "--Finished rendering volume 19 to .png--\n",
      "--Finished rendering volume 20 to .png--\n",
      "--Finished rendering volume 21 to .png--\n",
      "--Finished rendering volume 22 to .png--\n",
      "--Finished rendering volume 23 to .png--\n",
      "--Finished rendering volume 24 to .png--\n",
      "--Finished rendering volume 25 to .png--\n",
      "--Finished rendering volume 26 to .png--\n",
      "--Finished rendering volume 27 to .png--\n",
      "--Finished rendering volume 28 to .png--\n",
      "--Finished rendering volume 29 to .png--\n",
      "--Finished rendering volume 30 to .png--\n",
      "--Finished rendering volume 31 to .png--\n",
      "--Finished rendering volume 32 to .png--\n",
      "--Finished rendering volume 33 to .png--\n",
      "--Finished rendering volume 34 to .png--\n",
      "--Finished rendering volume 35 to .png--\n",
      "--Finished rendering volume 36 to .png--\n",
      "--Finished rendering volume 37 to .png--\n",
      "--Finished rendering volume 38 to .png--\n",
      "--Finished rendering volume 39 to .png--\n",
      "--Finished rendering volume 40 to .png--\n",
      "--Finished rendering volume 41 to .png--\n",
      "--Finished rendering volume 42 to .png--\n",
      "--Finished rendering volume 43 to .png--\n",
      "--Finished rendering volume 44 to .png--\n",
      "--Finished rendering pngs to video--\n"
     ]
    },
    {
     "name": "stderr",
     "output_type": "stream",
     "text": [
      "\n",
      "(wr_coregest_displacement_field_e1.nii:32484): Gtk-CRITICAL **: 20:22:25.547: gtk_window_resize: assertion 'width > 0' failed\n",
      "20:22:25: Debug: Adding duplicate image handler for 'Windows bitmap file'\n",
      " WARNING       numpymodule.py   30: <module>        - Unable to load numpy_formathandler accelerator from OpenGL_accelerate\n",
      "\n",
      "(wr_coregest_displacement_field_e1.nii:32506): Gtk-CRITICAL **: 20:22:31.373: gtk_window_resize: assertion 'width > 0' failed\n",
      "20:22:31: Debug: Adding duplicate image handler for 'Windows bitmap file'\n",
      " WARNING       numpymodule.py   30: <module>        - Unable to load numpy_formathandler accelerator from OpenGL_accelerate\n",
      "\n",
      "(wr_coregest_displacement_field_e1.nii:32530): Gtk-CRITICAL **: 20:22:36.906: gtk_window_resize: assertion 'width > 0' failed\n",
      "20:22:37: Debug: Adding duplicate image handler for 'Windows bitmap file'\n",
      " WARNING       numpymodule.py   30: <module>        - Unable to load numpy_formathandler accelerator from OpenGL_accelerate\n",
      "\n",
      "(wr_coregest_displacement_field_e1.nii:32551): Gtk-CRITICAL **: 20:22:42.271: gtk_window_resize: assertion 'width > 0' failed\n",
      "20:22:42: Debug: Adding duplicate image handler for 'Windows bitmap file'\n",
      " WARNING       numpymodule.py   30: <module>        - Unable to load numpy_formathandler accelerator from OpenGL_accelerate\n",
      "\n",
      "(wr_coregest_displacement_field_e1.nii:32573): Gtk-CRITICAL **: 20:22:48.005: gtk_window_resize: assertion 'width > 0' failed\n",
      "20:22:48: Debug: Adding duplicate image handler for 'Windows bitmap file'\n",
      " WARNING       numpymodule.py   30: <module>        - Unable to load numpy_formathandler accelerator from OpenGL_accelerate\n",
      "\n",
      "(wr_coregest_displacement_field_e1.nii:32593): Gtk-CRITICAL **: 20:22:53.638: gtk_window_resize: assertion 'width > 0' failed\n",
      "20:22:53: Debug: Adding duplicate image handler for 'Windows bitmap file'\n",
      " WARNING       numpymodule.py   30: <module>        - Unable to load numpy_formathandler accelerator from OpenGL_accelerate\n",
      "\n",
      "(wr_coregest_displacement_field_e1.nii:32622): Gtk-CRITICAL **: 20:22:59.199: gtk_window_resize: assertion 'width > 0' failed\n",
      "20:22:59: Debug: Adding duplicate image handler for 'Windows bitmap file'\n",
      " WARNING       numpymodule.py   30: <module>        - Unable to load numpy_formathandler accelerator from OpenGL_accelerate\n",
      "\n",
      "(wr_coregest_displacement_field_e1.nii:32643): Gtk-CRITICAL **: 20:23:04.568: gtk_window_resize: assertion 'width > 0' failed\n",
      "20:23:04: Debug: Adding duplicate image handler for 'Windows bitmap file'\n",
      " WARNING       numpymodule.py   30: <module>        - Unable to load numpy_formathandler accelerator from OpenGL_accelerate\n",
      "\n",
      "(wr_coregest_displacement_field_e1.nii:32669): Gtk-CRITICAL **: 20:23:10.145: gtk_window_resize: assertion 'width > 0' failed\n",
      "20:23:10: Debug: Adding duplicate image handler for 'Windows bitmap file'\n",
      " WARNING       numpymodule.py   30: <module>        - Unable to load numpy_formathandler accelerator from OpenGL_accelerate\n",
      "\n",
      "(wr_coregest_displacement_field_e1.nii:32690): Gtk-CRITICAL **: 20:23:15.723: gtk_window_resize: assertion 'width > 0' failed\n",
      "20:23:15: Debug: Adding duplicate image handler for 'Windows bitmap file'\n",
      " WARNING       numpymodule.py   30: <module>        - Unable to load numpy_formathandler accelerator from OpenGL_accelerate\n",
      "\n",
      "(wr_coregest_displacement_field_e1.nii:32710): Gtk-CRITICAL **: 20:23:21.243: gtk_window_resize: assertion 'width > 0' failed\n",
      "20:23:21: Debug: Adding duplicate image handler for 'Windows bitmap file'\n",
      " WARNING       numpymodule.py   30: <module>        - Unable to load numpy_formathandler accelerator from OpenGL_accelerate\n",
      "\n",
      "(wr_coregest_displacement_field_e1.nii:32731): Gtk-CRITICAL **: 20:23:26.851: gtk_window_resize: assertion 'width > 0' failed\n",
      "20:23:26: Debug: Adding duplicate image handler for 'Windows bitmap file'\n",
      " WARNING       numpymodule.py   30: <module>        - Unable to load numpy_formathandler accelerator from OpenGL_accelerate\n",
      "\n",
      "(wr_coregest_displacement_field_e1.nii:32752): Gtk-CRITICAL **: 20:23:32.466: gtk_window_resize: assertion 'width > 0' failed\n",
      "20:23:32: Debug: Adding duplicate image handler for 'Windows bitmap file'\n",
      " WARNING       numpymodule.py   30: <module>        - Unable to load numpy_formathandler accelerator from OpenGL_accelerate\n",
      "\n",
      "(wr_coregest_displacement_field_e1.nii:307): Gtk-CRITICAL **: 20:23:38.192: gtk_window_resize: assertion 'width > 0' failed\n",
      "20:23:38: Debug: Adding duplicate image handler for 'Windows bitmap file'\n",
      " WARNING       numpymodule.py   30: <module>        - Unable to load numpy_formathandler accelerator from OpenGL_accelerate\n",
      "\n",
      "(wr_coregest_displacement_field_e1.nii:329): Gtk-CRITICAL **: 20:23:43.774: gtk_window_resize: assertion 'width > 0' failed\n",
      "20:23:43: Debug: Adding duplicate image handler for 'Windows bitmap file'\n",
      " WARNING       numpymodule.py   30: <module>        - Unable to load numpy_formathandler accelerator from OpenGL_accelerate\n",
      "\n",
      "(wr_coregest_displacement_field_e1.nii:351): Gtk-CRITICAL **: 20:23:49.393: gtk_window_resize: assertion 'width > 0' failed\n",
      "20:23:49: Debug: Adding duplicate image handler for 'Windows bitmap file'\n",
      " WARNING       numpymodule.py   30: <module>        - Unable to load numpy_formathandler accelerator from OpenGL_accelerate\n",
      "\n",
      "(wr_coregest_displacement_field_e1.nii:372): Gtk-CRITICAL **: 20:23:54.766: gtk_window_resize: assertion 'width > 0' failed\n",
      "20:23:54: Debug: Adding duplicate image handler for 'Windows bitmap file'\n",
      " WARNING       numpymodule.py   30: <module>        - Unable to load numpy_formathandler accelerator from OpenGL_accelerate\n",
      "\n",
      "(wr_coregest_displacement_field_e1.nii:403): Gtk-CRITICAL **: 20:24:00.175: gtk_window_resize: assertion 'width > 0' failed\n",
      "20:24:00: Debug: Adding duplicate image handler for 'Windows bitmap file'\n",
      " WARNING       numpymodule.py   30: <module>        - Unable to load numpy_formathandler accelerator from OpenGL_accelerate\n",
      "\n",
      "(wr_coregest_displacement_field_e1.nii:437): Gtk-CRITICAL **: 20:24:05.735: gtk_window_resize: assertion 'width > 0' failed\n",
      "20:24:05: Debug: Adding duplicate image handler for 'Windows bitmap file'\n",
      " WARNING       numpymodule.py   30: <module>        - Unable to load numpy_formathandler accelerator from OpenGL_accelerate\n",
      "\n",
      "(wr_coregest_displacement_field_e1.nii:471): Gtk-CRITICAL **: 20:24:11.357: gtk_window_resize: assertion 'width > 0' failed\n",
      "20:24:11: Debug: Adding duplicate image handler for 'Windows bitmap file'\n",
      " WARNING       numpymodule.py   30: <module>        - Unable to load numpy_formathandler accelerator from OpenGL_accelerate\n",
      "\n",
      "(wr_coregest_displacement_field_e1.nii:492): Gtk-CRITICAL **: 20:24:16.976: gtk_window_resize: assertion 'width > 0' failed\n",
      "20:24:17: Debug: Adding duplicate image handler for 'Windows bitmap file'\n",
      " WARNING       numpymodule.py   30: <module>        - Unable to load numpy_formathandler accelerator from OpenGL_accelerate\n",
      "\n",
      "(wr_coregest_displacement_field_e1.nii:513): Gtk-CRITICAL **: 20:24:22.344: gtk_window_resize: assertion 'width > 0' failed\n",
      "20:24:22: Debug: Adding duplicate image handler for 'Windows bitmap file'\n",
      " WARNING       numpymodule.py   30: <module>        - Unable to load numpy_formathandler accelerator from OpenGL_accelerate\n",
      "\n",
      "(wr_coregest_displacement_field_e1.nii:536): Gtk-CRITICAL **: 20:24:27.823: gtk_window_resize: assertion 'width > 0' failed\n",
      "20:24:27: Debug: Adding duplicate image handler for 'Windows bitmap file'\n",
      " WARNING       numpymodule.py   30: <module>        - Unable to load numpy_formathandler accelerator from OpenGL_accelerate\n",
      "\n",
      "(wr_coregest_displacement_field_e1.nii:557): Gtk-CRITICAL **: 20:24:33.284: gtk_window_resize: assertion 'width > 0' failed\n",
      "20:24:33: Debug: Adding duplicate image handler for 'Windows bitmap file'\n",
      " WARNING       numpymodule.py   30: <module>        - Unable to load numpy_formathandler accelerator from OpenGL_accelerate\n",
      "\n",
      "(wr_coregest_displacement_field_e1.nii:581): Gtk-CRITICAL **: 20:24:38.802: gtk_window_resize: assertion 'width > 0' failed\n",
      "20:24:38: Debug: Adding duplicate image handler for 'Windows bitmap file'\n",
      " WARNING       numpymodule.py   30: <module>        - Unable to load numpy_formathandler accelerator from OpenGL_accelerate\n",
      "\n",
      "(wr_coregest_displacement_field_e1.nii:603): Gtk-CRITICAL **: 20:24:44.631: gtk_window_resize: assertion 'width > 0' failed\n",
      "20:24:44: Debug: Adding duplicate image handler for 'Windows bitmap file'\n",
      " WARNING       numpymodule.py   30: <module>        - Unable to load numpy_formathandler accelerator from OpenGL_accelerate\n",
      "\n",
      "(wr_coregest_displacement_field_e1.nii:624): Gtk-CRITICAL **: 20:24:50.348: gtk_window_resize: assertion 'width > 0' failed\n",
      "20:24:50: Debug: Adding duplicate image handler for 'Windows bitmap file'\n",
      " WARNING       numpymodule.py   30: <module>        - Unable to load numpy_formathandler accelerator from OpenGL_accelerate\n",
      "\n",
      "(wr_coregest_displacement_field_e1.nii:645): Gtk-CRITICAL **: 20:24:55.968: gtk_window_resize: assertion 'width > 0' failed\n",
      "20:24:56: Debug: Adding duplicate image handler for 'Windows bitmap file'\n",
      " WARNING       numpymodule.py   30: <module>        - Unable to load numpy_formathandler accelerator from OpenGL_accelerate\n",
      "\n",
      "(wr_coregest_displacement_field_e1.nii:665): Gtk-CRITICAL **: 20:25:01.640: gtk_window_resize: assertion 'width > 0' failed\n",
      "20:25:01: Debug: Adding duplicate image handler for 'Windows bitmap file'\n",
      " WARNING       numpymodule.py   30: <module>        - Unable to load numpy_formathandler accelerator from OpenGL_accelerate\n",
      "\n",
      "(wr_coregest_displacement_field_e1.nii:694): Gtk-CRITICAL **: 20:25:07.195: gtk_window_resize: assertion 'width > 0' failed\n",
      "20:25:07: Debug: Adding duplicate image handler for 'Windows bitmap file'\n",
      " WARNING       numpymodule.py   30: <module>        - Unable to load numpy_formathandler accelerator from OpenGL_accelerate\n",
      "\n",
      "(wr_coregest_displacement_field_e1.nii:720): Gtk-CRITICAL **: 20:25:12.849: gtk_window_resize: assertion 'width > 0' failed\n",
      "20:25:12: Debug: Adding duplicate image handler for 'Windows bitmap file'\n",
      " WARNING       numpymodule.py   30: <module>        - Unable to load numpy_formathandler accelerator from OpenGL_accelerate\n",
      "\n",
      "(wr_coregest_displacement_field_e1.nii:743): Gtk-CRITICAL **: 20:25:18.407: gtk_window_resize: assertion 'width > 0' failed\n",
      "20:25:18: Debug: Adding duplicate image handler for 'Windows bitmap file'\n",
      " WARNING       numpymodule.py   30: <module>        - Unable to load numpy_formathandler accelerator from OpenGL_accelerate\n",
      "\n",
      "(wr_coregest_displacement_field_e1.nii:768): Gtk-CRITICAL **: 20:25:23.835: gtk_window_resize: assertion 'width > 0' failed\n",
      "20:25:23: Debug: Adding duplicate image handler for 'Windows bitmap file'\n",
      " WARNING       numpymodule.py   30: <module>        - Unable to load numpy_formathandler accelerator from OpenGL_accelerate\n",
      "\n",
      "(wr_coregest_displacement_field_e1.nii:791): Gtk-CRITICAL **: 20:25:29.413: gtk_window_resize: assertion 'width > 0' failed\n",
      "20:25:29: Debug: Adding duplicate image handler for 'Windows bitmap file'\n",
      " WARNING       numpymodule.py   30: <module>        - Unable to load numpy_formathandler accelerator from OpenGL_accelerate\n",
      "\n",
      "(wr_coregest_displacement_field_e1.nii:812): Gtk-CRITICAL **: 20:25:35.050: gtk_window_resize: assertion 'width > 0' failed\n",
      "20:25:35: Debug: Adding duplicate image handler for 'Windows bitmap file'\n",
      " WARNING       numpymodule.py   30: <module>        - Unable to load numpy_formathandler accelerator from OpenGL_accelerate\n",
      "\n",
      "(wr_coregest_displacement_field_e1.nii:836): Gtk-CRITICAL **: 20:25:40.668: gtk_window_resize: assertion 'width > 0' failed\n",
      "20:25:40: Debug: Adding duplicate image handler for 'Windows bitmap file'\n",
      " WARNING       numpymodule.py   30: <module>        - Unable to load numpy_formathandler accelerator from OpenGL_accelerate\n",
      "\n",
      "(wr_coregest_displacement_field_e1.nii:857): Gtk-CRITICAL **: 20:25:46.199: gtk_window_resize: assertion 'width > 0' failed\n",
      "20:25:46: Debug: Adding duplicate image handler for 'Windows bitmap file'\n",
      " WARNING       numpymodule.py   30: <module>        - Unable to load numpy_formathandler accelerator from OpenGL_accelerate\n",
      "\n",
      "(wr_coregest_displacement_field_e1.nii:879): Gtk-CRITICAL **: 20:25:51.884: gtk_window_resize: assertion 'width > 0' failed\n",
      "20:25:52: Debug: Adding duplicate image handler for 'Windows bitmap file'\n",
      " WARNING       numpymodule.py   30: <module>        - Unable to load numpy_formathandler accelerator from OpenGL_accelerate\n",
      "\n",
      "(wr_coregest_displacement_field_e1.nii:900): Gtk-CRITICAL **: 20:25:57.455: gtk_window_resize: assertion 'width > 0' failed\n",
      "20:25:57: Debug: Adding duplicate image handler for 'Windows bitmap file'\n",
      " WARNING       numpymodule.py   30: <module>        - Unable to load numpy_formathandler accelerator from OpenGL_accelerate\n",
      "\n",
      "(wr_coregest_displacement_field_e1.nii:921): Gtk-CRITICAL **: 20:26:03.243: gtk_window_resize: assertion 'width > 0' failed\n",
      "20:26:03: Debug: Adding duplicate image handler for 'Windows bitmap file'\n",
      " WARNING       numpymodule.py   30: <module>        - Unable to load numpy_formathandler accelerator from OpenGL_accelerate\n",
      "\n",
      "(wr_coregest_displacement_field_e1.nii:951): Gtk-CRITICAL **: 20:26:08.683: gtk_window_resize: assertion 'width > 0' failed\n",
      "20:26:08: Debug: Adding duplicate image handler for 'Windows bitmap file'\n",
      " WARNING       numpymodule.py   30: <module>        - Unable to load numpy_formathandler accelerator from OpenGL_accelerate\n",
      "\n",
      "(wr_coregest_displacement_field_e1.nii:975): Gtk-CRITICAL **: 20:26:14.252: gtk_window_resize: assertion 'width > 0' failed\n",
      "20:26:14: Debug: Adding duplicate image handler for 'Windows bitmap file'\n",
      " WARNING       numpymodule.py   30: <module>        - Unable to load numpy_formathandler accelerator from OpenGL_accelerate\n",
      "\n",
      "(wr_coregest_displacement_field_e1.nii:1000): Gtk-CRITICAL **: 20:26:19.831: gtk_window_resize: assertion 'width > 0' failed\n",
      "20:26:19: Debug: Adding duplicate image handler for 'Windows bitmap file'\n",
      " WARNING       numpymodule.py   30: <module>        - Unable to load numpy_formathandler accelerator from OpenGL_accelerate\n",
      "\n",
      "(wr_coregest_displacement_field_e1.nii:1021): Gtk-CRITICAL **: 20:26:25.561: gtk_window_resize: assertion 'width > 0' failed\n",
      "20:26:25: Debug: Adding duplicate image handler for 'Windows bitmap file'\n",
      " WARNING       numpymodule.py   30: <module>        - Unable to load numpy_formathandler accelerator from OpenGL_accelerate\n",
      "\n",
      "(wr_coregest_displacement_field_e1.nii:1047): Gtk-CRITICAL **: 20:26:31.182: gtk_window_resize: assertion 'width > 0' failed\n",
      "20:26:31: Debug: Adding duplicate image handler for 'Windows bitmap file'\n",
      " WARNING       numpymodule.py   30: <module>        - Unable to load numpy_formathandler accelerator from OpenGL_accelerate\n",
      "ffmpeg version 4.0.4-0ubuntu1 Copyright (c) 2000-2019 the FFmpeg developers\n",
      "  built with gcc 8 (Ubuntu 8.2.0-7ubuntu1)\n",
      "  configuration: --prefix=/usr --extra-version=0ubuntu1 --toolchain=hardened --libdir=/usr/lib/x86_64-linux-gnu --incdir=/usr/include/x86_64-linux-gnu --arch=amd64 --enable-gpl --disable-stripping --enable-avresample --disable-filter=resample --enable-avisynth --enable-gnutls --enable-ladspa --enable-libaom --enable-libass --enable-libbluray --enable-libbs2b --enable-libcaca --enable-libcdio --enable-libcodec2 --enable-libflite --enable-libfontconfig --enable-libfreetype --enable-libfribidi --enable-libgme --enable-libgsm --enable-libjack --enable-libmp3lame --enable-libmysofa --enable-libopenjpeg --enable-libopenmpt --enable-libopus --enable-libpulse --enable-librsvg --enable-librubberband --enable-libshine --enable-libsnappy --enable-libsoxr --enable-libspeex --enable-libssh --enable-libtheora --enable-libtwolame --enable-libvorbis --enable-libvpx --enable-libwavpack --enable-libwebp --enable-libx265 --enable-libxml2 --enable-libxvid --enable-libzmq --enable-libzvbi --enable-lv2 --enable-omx --enable-openal --enable-opengl --enable-sdl2 --enable-libdc1394 --enable-libdrm --enable-libiec61883 --enable-chromaprint --enable-frei0r --enable-libopencv --enable-libx264 --enable-shared\n",
      "  libavutil      56. 14.100 / 56. 14.100\n",
      "  libavcodec     58. 18.100 / 58. 18.100\n",
      "  libavformat    58. 12.100 / 58. 12.100\n",
      "  libavdevice    58.  3.100 / 58.  3.100\n",
      "  libavfilter     7. 16.100 /  7. 16.100\n",
      "  libavresample   4.  0.  0 /  4.  0.  0\n",
      "  libswscale      5.  1.100 /  5.  1.100\n",
      "  libswresample   3.  1.100 /  3.  1.100\n",
      "  libpostproc    55.  1.100 / 55.  1.100\n",
      "Input #0, image2, from '../../epi_corrections_out_2019_07_02/render_fields/EPIC/e1/output_%03d.png':\n",
      "  Duration: 00:00:45.00, start: 0.000000, bitrate: N/A\n",
      "    Stream #0:0: Video: png, rgba(pc), 800x600 [SAR 3937:3937 DAR 4:3], 1 fps, 1 tbr, 1 tbn, 1 tbc\n",
      "Stream mapping:\n",
      "  Stream #0:0 -> #0:0 (png (native) -> h264 (libx264))\n",
      "Press [q] to stop, [?] for help\n",
      "[libx264 @ 0x564d225d4400] using SAR=1/1\n",
      "[libx264 @ 0x564d225d4400] using cpu capabilities: MMX2 SSE2Fast SSSE3 SSE4.1 Cache64\n",
      "[libx264 @ 0x564d225d4400] profile High, level 4.0\n",
      "[libx264 @ 0x564d225d4400] 264 - core 152 r2854 e9a5903 - H.264/MPEG-4 AVC codec - Copyleft 2003-2017 - http://www.videolan.org/x264.html - options: cabac=1 ref=5 deblock=1:0:0 analyse=0x3:0x113 me=hex subme=8 psy=1 psy_rd=1.00:0.00 mixed_ref=1 me_range=16 chroma_me=1 trellis=2 8x8dct=1 cqm=0 deadzone=21,11 fast_pskip=1 chroma_qp_offset=-2 threads=6 lookahead_threads=1 sliced_threads=0 nr=0 decimate=1 interlaced=0 bluray_compat=0 constrained_intra=0 bframes=3 b_pyramid=2 b_adapt=1 b_bias=0 direct=3 weightb=1 open_gop=0 weightp=2 keyint=250 keyint_min=1 scenecut=40 intra_refresh=0 rc_lookahead=50 rc=crf mbtree=1 crf=1.0 qcomp=0.60 qpmin=0 qpmax=69 qpstep=4 ip_ratio=1.40 aq=1:1.00\n",
      "Output #0, mp4, to '../../epi_corrections_out_2019_07_02/render_fields/EPIC/e1/video.mp4':\n",
      "  Metadata:\n",
      "    encoder         : Lavf58.12.100\n",
      "    Stream #0:0: Video: h264 (libx264) (avc1 / 0x31637661), yuv420p, 800x600 [SAR 1:1 DAR 4:3], q=-1--1, 1 fps, 16384 tbn, 1 tbc\n",
      "    Metadata:\n",
      "      encoder         : Lavc58.18.100 libx264\n",
      "    Side data:\n",
      "      cpb: bitrate max/min/avg: 0/0/0 buffer size: 0 vbv_delay: -1\n",
      "frame=   45 fps= 12 q=-1.0 L10000000000000000000000000000000size=    3117kB time=00:00:42.00 bitrate= 607.9kbits/s speed=11.5x    \n",
      "video:3115kB audio:0kB subtitle:0kB other streams:0kB global headers:0kB muxing overhead: 0.044982%\n",
      "[libx264 @ 0x564d225d4400] frame I:1     Avg QP: 0.19  size: 90191\n",
      "[libx264 @ 0x564d225d4400] frame P:14    Avg QP: 0.51  size: 68976\n",
      "[libx264 @ 0x564d225d4400] frame B:30    Avg QP: 0.69  size: 71121\n",
      "[libx264 @ 0x564d225d4400] consecutive B-frames:  4.4% 17.8%  6.7% 71.1%\n",
      "[libx264 @ 0x564d225d4400] mb I  I16..4: 60.4%  0.0% 39.6%\n",
      "[libx264 @ 0x564d225d4400] mb P  I16..4:  4.1%  0.1% 18.4%  P16..4:  6.1%  2.7%  2.6%  0.0%  0.0%    skip:65.9%\n",
      "[libx264 @ 0x564d225d4400] mb B  I16..4:  1.2%  0.1% 16.8%  B16..8:  5.5%  2.3%  2.9%  direct: 3.4%  skip:67.9%  L0:63.1% L1:26.0% BI:10.9%\n",
      "[libx264 @ 0x564d225d4400] 8x8 transform intra:0.4% inter:6.1%\n",
      "[libx264 @ 0x564d225d4400] direct mvs  spatial:86.7% temporal:13.3%\n",
      "[libx264 @ 0x564d225d4400] coded y,uvDC,uvAC intra: 80.3% 80.5% 80.5% inter: 10.9% 13.1% 13.1%\n",
      "[libx264 @ 0x564d225d4400] i16 v,h,dc,p: 81% 15%  3%  1%\n",
      "[libx264 @ 0x564d225d4400] i8 v,h,dc,ddl,ddr,vr,hd,vl,hu: 47% 27% 12%  1%  2%  2%  2%  5%  2%\n",
      "[libx264 @ 0x564d225d4400] i4 v,h,dc,ddl,ddr,vr,hd,vl,hu: 47% 29%  8%  3%  3%  2%  2%  3%  2%\n",
      "[libx264 @ 0x564d225d4400] i8c dc,h,v,p: 34% 17% 32% 16%\n",
      "[libx264 @ 0x564d225d4400] Weighted P-Frames: Y:0.0% UV:0.0%\n",
      "[libx264 @ 0x564d225d4400] ref P L0: 25.6%  8.3% 30.0% 23.6% 12.5%\n",
      "[libx264 @ 0x564d225d4400] ref B L0: 50.5% 25.9% 18.9%  4.6%\n",
      "[libx264 @ 0x564d225d4400] ref B L1: 89.4% 10.6%\n",
      "[libx264 @ 0x564d225d4400] kb/s:567.02\n",
      "\n",
      "(wr_coregest_displacement_field_e2.nii:1088): Gtk-CRITICAL **: 20:26:41.673: gtk_window_resize: assertion 'width > 0' failed\n",
      "20:26:41: Debug: Adding duplicate image handler for 'Windows bitmap file'\n",
      " WARNING       numpymodule.py   30: <module>        - Unable to load numpy_formathandler accelerator from OpenGL_accelerate\n",
      "\n",
      "(wr_coregest_displacement_field_e2.nii:1116): Gtk-CRITICAL **: 20:26:47.244: gtk_window_resize: assertion 'width > 0' failed\n",
      "20:26:47: Debug: Adding duplicate image handler for 'Windows bitmap file'\n",
      " WARNING       numpymodule.py   30: <module>        - Unable to load numpy_formathandler accelerator from OpenGL_accelerate\n",
      "\n",
      "(wr_coregest_displacement_field_e2.nii:1139): Gtk-CRITICAL **: 20:26:52.874: gtk_window_resize: assertion 'width > 0' failed\n",
      "20:26:53: Debug: Adding duplicate image handler for 'Windows bitmap file'\n",
      " WARNING       numpymodule.py   30: <module>        - Unable to load numpy_formathandler accelerator from OpenGL_accelerate\n",
      "\n",
      "(wr_coregest_displacement_field_e2.nii:1164): Gtk-CRITICAL **: 20:26:58.440: gtk_window_resize: assertion 'width > 0' failed\n",
      "20:26:58: Debug: Adding duplicate image handler for 'Windows bitmap file'\n",
      " WARNING       numpymodule.py   30: <module>        - Unable to load numpy_formathandler accelerator from OpenGL_accelerate\n",
      "\n",
      "(wr_coregest_displacement_field_e2.nii:1184): Gtk-CRITICAL **: 20:27:04.133: gtk_window_resize: assertion 'width > 0' failed\n",
      "20:27:04: Debug: Adding duplicate image handler for 'Windows bitmap file'\n",
      " WARNING       numpymodule.py   30: <module>        - Unable to load numpy_formathandler accelerator from OpenGL_accelerate\n",
      "\n",
      "(wr_coregest_displacement_field_e2.nii:1216): Gtk-CRITICAL **: 20:27:09.976: gtk_window_resize: assertion 'width > 0' failed\n",
      "20:27:10: Debug: Adding duplicate image handler for 'Windows bitmap file'\n",
      " WARNING       numpymodule.py   30: <module>        - Unable to load numpy_formathandler accelerator from OpenGL_accelerate\n",
      "\n",
      "(wr_coregest_displacement_field_e2.nii:1240): Gtk-CRITICAL **: 20:27:15.645: gtk_window_resize: assertion 'width > 0' failed\n",
      "20:27:15: Debug: Adding duplicate image handler for 'Windows bitmap file'\n",
      " WARNING       numpymodule.py   30: <module>        - Unable to load numpy_formathandler accelerator from OpenGL_accelerate\n",
      "\n",
      "(wr_coregest_displacement_field_e2.nii:1265): Gtk-CRITICAL **: 20:27:21.602: gtk_window_resize: assertion 'width > 0' failed\n",
      "20:27:21: Debug: Adding duplicate image handler for 'Windows bitmap file'\n",
      " WARNING       numpymodule.py   30: <module>        - Unable to load numpy_formathandler accelerator from OpenGL_accelerate\n",
      "\n",
      "(wr_coregest_displacement_field_e2.nii:1293): Gtk-CRITICAL **: 20:27:27.239: gtk_window_resize: assertion 'width > 0' failed\n",
      "20:27:27: Debug: Adding duplicate image handler for 'Windows bitmap file'\n",
      " WARNING       numpymodule.py   30: <module>        - Unable to load numpy_formathandler accelerator from OpenGL_accelerate\n",
      "\n",
      "(wr_coregest_displacement_field_e2.nii:1314): Gtk-CRITICAL **: 20:27:32.806: gtk_window_resize: assertion 'width > 0' failed\n",
      "20:27:32: Debug: Adding duplicate image handler for 'Windows bitmap file'\n",
      " WARNING       numpymodule.py   30: <module>        - Unable to load numpy_formathandler accelerator from OpenGL_accelerate\n",
      "\n",
      "(wr_coregest_displacement_field_e2.nii:1335): Gtk-CRITICAL **: 20:27:38.503: gtk_window_resize: assertion 'width > 0' failed\n",
      "20:27:38: Debug: Adding duplicate image handler for 'Windows bitmap file'\n",
      " WARNING       numpymodule.py   30: <module>        - Unable to load numpy_formathandler accelerator from OpenGL_accelerate\n",
      "\n",
      "(wr_coregest_displacement_field_e2.nii:1361): Gtk-CRITICAL **: 20:27:43.724: gtk_window_resize: assertion 'width > 0' failed\n",
      "20:27:43: Debug: Adding duplicate image handler for 'Windows bitmap file'\n",
      " WARNING       numpymodule.py   30: <module>        - Unable to load numpy_formathandler accelerator from OpenGL_accelerate\n",
      "\n",
      "(wr_coregest_displacement_field_e2.nii:1382): Gtk-CRITICAL **: 20:27:49.230: gtk_window_resize: assertion 'width > 0' failed\n",
      "20:27:49: Debug: Adding duplicate image handler for 'Windows bitmap file'\n",
      " WARNING       numpymodule.py   30: <module>        - Unable to load numpy_formathandler accelerator from OpenGL_accelerate\n",
      "\n",
      "(wr_coregest_displacement_field_e2.nii:1405): Gtk-CRITICAL **: 20:27:54.636: gtk_window_resize: assertion 'width > 0' failed\n",
      "20:27:54: Debug: Adding duplicate image handler for 'Windows bitmap file'\n",
      " WARNING       numpymodule.py   30: <module>        - Unable to load numpy_formathandler accelerator from OpenGL_accelerate\n",
      "\n",
      "(wr_coregest_displacement_field_e2.nii:1431): Gtk-CRITICAL **: 20:28:00.207: gtk_window_resize: assertion 'width > 0' failed\n",
      "20:28:00: Debug: Adding duplicate image handler for 'Windows bitmap file'\n",
      " WARNING       numpymodule.py   30: <module>        - Unable to load numpy_formathandler accelerator from OpenGL_accelerate\n",
      "\n",
      "(wr_coregest_displacement_field_e2.nii:1455): Gtk-CRITICAL **: 20:28:05.951: gtk_window_resize: assertion 'width > 0' failed\n",
      "20:28:06: Debug: Adding duplicate image handler for 'Windows bitmap file'\n",
      " WARNING       numpymodule.py   30: <module>        - Unable to load numpy_formathandler accelerator from OpenGL_accelerate\n",
      "\n",
      "(wr_coregest_displacement_field_e2.nii:1486): Gtk-CRITICAL **: 20:28:11.584: gtk_window_resize: assertion 'width > 0' failed\n",
      "20:28:11: Debug: Adding duplicate image handler for 'Windows bitmap file'\n",
      " WARNING       numpymodule.py   30: <module>        - Unable to load numpy_formathandler accelerator from OpenGL_accelerate\n",
      "\n",
      "(wr_coregest_displacement_field_e2.nii:1511): Gtk-CRITICAL **: 20:28:16.928: gtk_window_resize: assertion 'width > 0' failed\n",
      "20:28:17: Debug: Adding duplicate image handler for 'Windows bitmap file'\n",
      " WARNING       numpymodule.py   30: <module>        - Unable to load numpy_formathandler accelerator from OpenGL_accelerate\n",
      "\n",
      "(wr_coregest_displacement_field_e2.nii:1532): Gtk-CRITICAL **: 20:28:22.332: gtk_window_resize: assertion 'width > 0' failed\n",
      "20:28:22: Debug: Adding duplicate image handler for 'Windows bitmap file'\n",
      " WARNING       numpymodule.py   30: <module>        - Unable to load numpy_formathandler accelerator from OpenGL_accelerate\n",
      "\n",
      "(wr_coregest_displacement_field_e2.nii:1552): Gtk-CRITICAL **: 20:28:27.432: gtk_window_resize: assertion 'width > 0' failed\n",
      "20:28:27: Debug: Adding duplicate image handler for 'Windows bitmap file'\n",
      " WARNING       numpymodule.py   30: <module>        - Unable to load numpy_formathandler accelerator from OpenGL_accelerate\n",
      "\n",
      "(wr_coregest_displacement_field_e2.nii:1582): Gtk-CRITICAL **: 20:28:33.064: gtk_window_resize: assertion 'width > 0' failed\n",
      "20:28:33: Debug: Adding duplicate image handler for 'Windows bitmap file'\n",
      " WARNING       numpymodule.py   30: <module>        - Unable to load numpy_formathandler accelerator from OpenGL_accelerate\n",
      "\n",
      "(wr_coregest_displacement_field_e2.nii:1603): Gtk-CRITICAL **: 20:28:38.599: gtk_window_resize: assertion 'width > 0' failed\n",
      "20:28:38: Debug: Adding duplicate image handler for 'Windows bitmap file'\n",
      " WARNING       numpymodule.py   30: <module>        - Unable to load numpy_formathandler accelerator from OpenGL_accelerate\n",
      "\n",
      "(wr_coregest_displacement_field_e2.nii:1625): Gtk-CRITICAL **: 20:28:44.960: gtk_window_resize: assertion 'width > 0' failed\n",
      "20:28:45: Debug: Adding duplicate image handler for 'Windows bitmap file'\n",
      " WARNING       numpymodule.py   30: <module>        - Unable to load numpy_formathandler accelerator from OpenGL_accelerate\n",
      "\n",
      "(wr_coregest_displacement_field_e2.nii:1653): Gtk-CRITICAL **: 20:28:50.843: gtk_window_resize: assertion 'width > 0' failed\n",
      "20:28:50: Debug: Adding duplicate image handler for 'Windows bitmap file'\n",
      " WARNING       numpymodule.py   30: <module>        - Unable to load numpy_formathandler accelerator from OpenGL_accelerate\n",
      "\n",
      "(wr_coregest_displacement_field_e2.nii:1678): Gtk-CRITICAL **: 20:28:56.344: gtk_window_resize: assertion 'width > 0' failed\n",
      "20:28:56: Debug: Adding duplicate image handler for 'Windows bitmap file'\n",
      " WARNING       numpymodule.py   30: <module>        - Unable to load numpy_formathandler accelerator from OpenGL_accelerate\n",
      "\n",
      "(wr_coregest_displacement_field_e2.nii:1703): Gtk-CRITICAL **: 20:29:01.606: gtk_window_resize: assertion 'width > 0' failed\n",
      "20:29:01: Debug: Adding duplicate image handler for 'Windows bitmap file'\n",
      " WARNING       numpymodule.py   30: <module>        - Unable to load numpy_formathandler accelerator from OpenGL_accelerate\n",
      "\n",
      "(wr_coregest_displacement_field_e2.nii:1726): Gtk-CRITICAL **: 20:29:08.108: gtk_window_resize: assertion 'width > 0' failed\n",
      "20:29:08: Debug: Adding duplicate image handler for 'Windows bitmap file'\n",
      " WARNING       numpymodule.py   30: <module>        - Unable to load numpy_formathandler accelerator from OpenGL_accelerate\n",
      "\n",
      "(wr_coregest_displacement_field_e2.nii:1757): Gtk-CRITICAL **: 20:29:14.090: gtk_window_resize: assertion 'width > 0' failed\n",
      "20:29:14: Debug: Adding duplicate image handler for 'Windows bitmap file'\n",
      " WARNING       numpymodule.py   30: <module>        - Unable to load numpy_formathandler accelerator from OpenGL_accelerate\n",
      "\n",
      "(wr_coregest_displacement_field_e2.nii:1785): Gtk-CRITICAL **: 20:29:19.816: gtk_window_resize: assertion 'width > 0' failed\n",
      "20:29:20: Debug: Adding duplicate image handler for 'Windows bitmap file'\n",
      " WARNING       numpymodule.py   30: <module>        - Unable to load numpy_formathandler accelerator from OpenGL_accelerate\n",
      "\n",
      "(wr_coregest_displacement_field_e2.nii:1807): Gtk-CRITICAL **: 20:29:25.689: gtk_window_resize: assertion 'width > 0' failed\n",
      "20:29:25: Debug: Adding duplicate image handler for 'Windows bitmap file'\n",
      " WARNING       numpymodule.py   30: <module>        - Unable to load numpy_formathandler accelerator from OpenGL_accelerate\n",
      "\n",
      "(wr_coregest_displacement_field_e2.nii:1828): Gtk-CRITICAL **: 20:29:31.054: gtk_window_resize: assertion 'width > 0' failed\n",
      "20:29:31: Debug: Adding duplicate image handler for 'Windows bitmap file'\n",
      " WARNING       numpymodule.py   30: <module>        - Unable to load numpy_formathandler accelerator from OpenGL_accelerate\n",
      "\n",
      "(wr_coregest_displacement_field_e2.nii:1848): Gtk-CRITICAL **: 20:29:36.621: gtk_window_resize: assertion 'width > 0' failed\n",
      "20:29:36: Debug: Adding duplicate image handler for 'Windows bitmap file'\n",
      " WARNING       numpymodule.py   30: <module>        - Unable to load numpy_formathandler accelerator from OpenGL_accelerate\n",
      "\n",
      "(wr_coregest_displacement_field_e2.nii:1873): Gtk-CRITICAL **: 20:29:42.199: gtk_window_resize: assertion 'width > 0' failed\n",
      "20:29:42: Debug: Adding duplicate image handler for 'Windows bitmap file'\n",
      " WARNING       numpymodule.py   30: <module>        - Unable to load numpy_formathandler accelerator from OpenGL_accelerate\n",
      "\n",
      "(wr_coregest_displacement_field_e2.nii:1895): Gtk-CRITICAL **: 20:29:47.460: gtk_window_resize: assertion 'width > 0' failed\n",
      "20:29:47: Debug: Adding duplicate image handler for 'Windows bitmap file'\n",
      " WARNING       numpymodule.py   30: <module>        - Unable to load numpy_formathandler accelerator from OpenGL_accelerate\n",
      "\n",
      "(wr_coregest_displacement_field_e2.nii:1924): Gtk-CRITICAL **: 20:29:52.992: gtk_window_resize: assertion 'width > 0' failed\n",
      "20:29:53: Debug: Adding duplicate image handler for 'Windows bitmap file'\n",
      " WARNING       numpymodule.py   30: <module>        - Unable to load numpy_formathandler accelerator from OpenGL_accelerate\n",
      "\n",
      "(wr_coregest_displacement_field_e2.nii:1948): Gtk-CRITICAL **: 20:29:58.704: gtk_window_resize: assertion 'width > 0' failed\n",
      "20:29:58: Debug: Adding duplicate image handler for 'Windows bitmap file'\n",
      " WARNING       numpymodule.py   30: <module>        - Unable to load numpy_formathandler accelerator from OpenGL_accelerate\n",
      "\n",
      "(wr_coregest_displacement_field_e2.nii:1970): Gtk-CRITICAL **: 20:30:04.574: gtk_window_resize: assertion 'width > 0' failed\n",
      "20:30:04: Debug: Adding duplicate image handler for 'Windows bitmap file'\n",
      " WARNING       numpymodule.py   30: <module>        - Unable to load numpy_formathandler accelerator from OpenGL_accelerate\n",
      "\n",
      "(wr_coregest_displacement_field_e2.nii:1991): Gtk-CRITICAL **: 20:30:10.096: gtk_window_resize: assertion 'width > 0' failed\n",
      "20:30:10: Debug: Adding duplicate image handler for 'Windows bitmap file'\n",
      " WARNING       numpymodule.py   30: <module>        - Unable to load numpy_formathandler accelerator from OpenGL_accelerate\n",
      "\n",
      "(wr_coregest_displacement_field_e2.nii:2024): Gtk-CRITICAL **: 20:30:16.094: gtk_window_resize: assertion 'width > 0' failed\n",
      "20:30:16: Debug: Adding duplicate image handler for 'Windows bitmap file'\n",
      " WARNING       numpymodule.py   30: <module>        - Unable to load numpy_formathandler accelerator from OpenGL_accelerate\n",
      "\n",
      "(wr_coregest_displacement_field_e2.nii:2047): Gtk-CRITICAL **: 20:30:21.872: gtk_window_resize: assertion 'width > 0' failed\n",
      "20:30:22: Debug: Adding duplicate image handler for 'Windows bitmap file'\n",
      " WARNING       numpymodule.py   30: <module>        - Unable to load numpy_formathandler accelerator from OpenGL_accelerate\n",
      "\n",
      "(wr_coregest_displacement_field_e2.nii:2068): Gtk-CRITICAL **: 20:30:27.280: gtk_window_resize: assertion 'width > 0' failed\n",
      "20:30:27: Debug: Adding duplicate image handler for 'Windows bitmap file'\n",
      " WARNING       numpymodule.py   30: <module>        - Unable to load numpy_formathandler accelerator from OpenGL_accelerate\n",
      "\n",
      "(wr_coregest_displacement_field_e2.nii:2088): Gtk-CRITICAL **: 20:30:32.890: gtk_window_resize: assertion 'width > 0' failed\n",
      "20:30:33: Debug: Adding duplicate image handler for 'Windows bitmap file'\n",
      " WARNING       numpymodule.py   30: <module>        - Unable to load numpy_formathandler accelerator from OpenGL_accelerate\n",
      "\n",
      "(wr_coregest_displacement_field_e2.nii:2113): Gtk-CRITICAL **: 20:30:38.397: gtk_window_resize: assertion 'width > 0' failed\n",
      "20:30:38: Debug: Adding duplicate image handler for 'Windows bitmap file'\n",
      " WARNING       numpymodule.py   30: <module>        - Unable to load numpy_formathandler accelerator from OpenGL_accelerate\n",
      "\n",
      "(wr_coregest_displacement_field_e2.nii:2134): Gtk-CRITICAL **: 20:30:43.952: gtk_window_resize: assertion 'width > 0' failed\n",
      "20:30:44: Debug: Adding duplicate image handler for 'Windows bitmap file'\n",
      " WARNING       numpymodule.py   30: <module>        - Unable to load numpy_formathandler accelerator from OpenGL_accelerate\n",
      "\n",
      "(wr_coregest_displacement_field_e2.nii:2157): Gtk-CRITICAL **: 20:30:49.380: gtk_window_resize: assertion 'width > 0' failed\n",
      "20:30:49: Debug: Adding duplicate image handler for 'Windows bitmap file'\n",
      " WARNING       numpymodule.py   30: <module>        - Unable to load numpy_formathandler accelerator from OpenGL_accelerate\n",
      "ffmpeg version 4.0.4-0ubuntu1 Copyright (c) 2000-2019 the FFmpeg developers\n",
      "  built with gcc 8 (Ubuntu 8.2.0-7ubuntu1)\n",
      "  configuration: --prefix=/usr --extra-version=0ubuntu1 --toolchain=hardened --libdir=/usr/lib/x86_64-linux-gnu --incdir=/usr/include/x86_64-linux-gnu --arch=amd64 --enable-gpl --disable-stripping --enable-avresample --disable-filter=resample --enable-avisynth --enable-gnutls --enable-ladspa --enable-libaom --enable-libass --enable-libbluray --enable-libbs2b --enable-libcaca --enable-libcdio --enable-libcodec2 --enable-libflite --enable-libfontconfig --enable-libfreetype --enable-libfribidi --enable-libgme --enable-libgsm --enable-libjack --enable-libmp3lame --enable-libmysofa --enable-libopenjpeg --enable-libopenmpt --enable-libopus --enable-libpulse --enable-librsvg --enable-librubberband --enable-libshine --enable-libsnappy --enable-libsoxr --enable-libspeex --enable-libssh --enable-libtheora --enable-libtwolame --enable-libvorbis --enable-libvpx --enable-libwavpack --enable-libwebp --enable-libx265 --enable-libxml2 --enable-libxvid --enable-libzmq --enable-libzvbi --enable-lv2 --enable-omx --enable-openal --enable-opengl --enable-sdl2 --enable-libdc1394 --enable-libdrm --enable-libiec61883 --enable-chromaprint --enable-frei0r --enable-libopencv --enable-libx264 --enable-shared\n",
      "  libavutil      56. 14.100 / 56. 14.100\n",
      "  libavcodec     58. 18.100 / 58. 18.100\n",
      "  libavformat    58. 12.100 / 58. 12.100\n",
      "  libavdevice    58.  3.100 / 58.  3.100\n",
      "  libavfilter     7. 16.100 /  7. 16.100\n",
      "  libavresample   4.  0.  0 /  4.  0.  0\n",
      "  libswscale      5.  1.100 /  5.  1.100\n",
      "  libswresample   3.  1.100 /  3.  1.100\n",
      "  libpostproc    55.  1.100 / 55.  1.100\n",
      "Input #0, image2, from '../../epi_corrections_out_2019_07_02/render_fields/EPIC/e2/output_%03d.png':\n",
      "  Duration: 00:00:45.00, start: 0.000000, bitrate: N/A\n",
      "    Stream #0:0: Video: png, rgba(pc), 800x600 [SAR 3937:3937 DAR 4:3], 1 fps, 1 tbr, 1 tbn, 1 tbc\n",
      "Stream mapping:\n",
      "  Stream #0:0 -> #0:0 (png (native) -> h264 (libx264))\n",
      "Press [q] to stop, [?] for help\n",
      "[libx264 @ 0x55f722402440] using SAR=1/1\n",
      "[libx264 @ 0x55f722402440] using cpu capabilities: MMX2 SSE2Fast SSSE3 SSE4.1 Cache64\n",
      "[libx264 @ 0x55f722402440] profile High, level 4.0\n",
      "[libx264 @ 0x55f722402440] 264 - core 152 r2854 e9a5903 - H.264/MPEG-4 AVC codec - Copyleft 2003-2017 - http://www.videolan.org/x264.html - options: cabac=1 ref=5 deblock=1:0:0 analyse=0x3:0x113 me=hex subme=8 psy=1 psy_rd=1.00:0.00 mixed_ref=1 me_range=16 chroma_me=1 trellis=2 8x8dct=1 cqm=0 deadzone=21,11 fast_pskip=1 chroma_qp_offset=-2 threads=6 lookahead_threads=1 sliced_threads=0 nr=0 decimate=1 interlaced=0 bluray_compat=0 constrained_intra=0 bframes=3 b_pyramid=2 b_adapt=1 b_bias=0 direct=3 weightb=1 open_gop=0 weightp=2 keyint=250 keyint_min=1 scenecut=40 intra_refresh=0 rc_lookahead=50 rc=crf mbtree=1 crf=1.0 qcomp=0.60 qpmin=0 qpmax=69 qpstep=4 ip_ratio=1.40 aq=1:1.00\n",
      "Output #0, mp4, to '../../epi_corrections_out_2019_07_02/render_fields/EPIC/e2/video.mp4':\n",
      "  Metadata:\n",
      "    encoder         : Lavf58.12.100\n",
      "    Stream #0:0: Video: h264 (libx264) (avc1 / 0x31637661), yuv420p, 800x600 [SAR 1:1 DAR 4:3], q=-1--1, 1 fps, 16384 tbn, 1 tbc\n",
      "    Metadata:\n",
      "      encoder         : Lavc58.18.100 libx264\n",
      "    Side data:\n",
      "      cpb: bitrate max/min/avg: 0/0/0 buffer size: 0 vbv_delay: -1\n",
      "frame=   45 fps= 12 q=-1.0 Lsize=    3373kB time=00:00:42.00 bitrate= 657.9kbits/s speed=11.3x    \n",
      "video:3372kB audio:0kB subtitle:0kB other streams:0kB global headers:0kB muxing overhead: 0.041216%\n",
      "[libx264 @ 0x55f722402440] frame I:1     Avg QP: 0.36  size: 97685\n",
      "[libx264 @ 0x55f722402440] frame P:15    Avg QP: 0.52  size: 75527\n",
      "[libx264 @ 0x55f722402440] frame B:29    Avg QP: 0.69  size: 76597\n",
      "[libx264 @ 0x55f722402440] consecutive B-frames:  4.4% 26.7%  6.7% 62.2%\n",
      "[libx264 @ 0x55f722402440] mb I  I16..4: 60.7%  0.1% 39.2%\n",
      "[libx264 @ 0x55f722402440] mb P  I16..4:  3.8%  0.1% 16.9%  P16..4:  6.2%  3.5%  3.5%  0.0%  0.0%    skip:66.1%\n",
      "[libx264 @ 0x55f722402440] mb B  I16..4:  0.9%  0.1% 17.0%  B16..8:  5.7%  2.3%  3.5%  direct: 3.2%  skip:67.3%  L0:57.8% L1:30.3% BI:11.9%\n",
      "[libx264 @ 0x55f722402440] 8x8 transform intra:0.4% inter:3.9%\n",
      "[libx264 @ 0x55f722402440] direct mvs  spatial:89.7% temporal:10.3%\n",
      "[libx264 @ 0x55f722402440] coded y,uvDC,uvAC intra: 81.5% 81.6% 81.6% inter: 11.7% 13.9% 13.9%\n",
      "[libx264 @ 0x55f722402440] i16 v,h,dc,p: 82% 14%  3%  1%\n",
      "[libx264 @ 0x55f722402440] i8 v,h,dc,ddl,ddr,vr,hd,vl,hu: 42% 18% 21%  2%  3%  5%  2%  4%  3%\n",
      "[libx264 @ 0x55f722402440] i4 v,h,dc,ddl,ddr,vr,hd,vl,hu: 48% 28%  8%  3%  4%  3%  2%  3%  2%\n",
      "[libx264 @ 0x55f722402440] i8c dc,h,v,p: 35% 17% 34% 14%\n",
      "[libx264 @ 0x55f722402440] Weighted P-Frames: Y:0.0% UV:0.0%\n",
      "[libx264 @ 0x55f722402440] ref P L0: 20.1%  7.8% 28.7% 19.7% 23.7%\n",
      "[libx264 @ 0x55f722402440] ref B L0: 43.8% 32.5% 18.8%  4.9%\n",
      "[libx264 @ 0x55f722402440] ref B L1: 80.0% 20.0%\n",
      "[libx264 @ 0x55f722402440] kb/s:613.67\n"
     ]
    }
   ],
   "source": [
    "%%bash -s \"{\" \".join(topup_field_files_e1)}\" \"{\" \".join(epic_field_files_e1)}\" \"{\" \".join(topup_field_files_e2)}\" \"{\" \".join(epic_field_files_e2)}\" \"{\" \".join(topup_label_files_e1)}\" \"{\" \".join(epic_label_files_e1)}\" \"{\" \".join(topup_label_files_e2)}\" \"{\" \".join(epic_label_files_e2)}\"\n",
    "IFS=' ' read -r -a topup_field_files_e1 <<< \"$1\"\n",
    "IFS=' ' read -r -a epic_field_files_e1 <<< \"$2\"\n",
    "IFS=' ' read -r -a topup_field_files_e2 <<< \"$3\"\n",
    "IFS=' ' read -r -a epic_field_files_e2 <<< \"$4\"\n",
    "IFS=' ' read -r -a topup_label_files_e1 <<< \"$5\"\n",
    "IFS=' ' read -r -a epic_label_files_e1 <<< \"$6\"\n",
    "IFS=' ' read -r -a topup_label_files_e2 <<< \"$7\"\n",
    "IFS=' ' read -r -a epic_label_files_e2 <<< \"$8\"\n",
    "render() {\n",
    "    local -n _field_files=$1\n",
    "    local -n _label_files=$2\n",
    "    local -n _render_dir=$3\n",
    "    \n",
    "    # Remove existing render directory.\n",
    "    if [ -d \"$_render_dir\" ]; then rm -rd \"$_render_dir\"; fi\n",
    "    \n",
    "    mkdir -p \"$_render_dir\"\n",
    "    \n",
    "    for index in \"${!_field_files[@]}\"\n",
    "    do\n",
    "        field_file=\"${_field_files[index]}\"\n",
    "        label_file=\"${_label_files[index]}\"\n",
    "        \n",
    "        field_file_name=\"$(basename $field_file)\"\n",
    "        label_file_name=\"$(basename $label_file)\"\n",
    "        \n",
    "        render_command='fsleyes \n",
    "            render \n",
    "            --outfile \"'$_render_dir'/'output_$(printf \"%03d\\n\" $index)'\" \n",
    "            --scene ortho \n",
    "            --worldLoc 9.918212890625e-05 -18.000099182128906 7.999900817871094 \n",
    "            --displaySpace \n",
    "            '$field_file' \n",
    "            --xcentre  0.00000  0.00000 \n",
    "            --ycentre  0.00000  0.00000 \n",
    "            --zcentre  0.00000 -0.00000 \n",
    "            --xzoom 100.0 \n",
    "            --yzoom 100.0 \n",
    "            --zzoom 100.0 \n",
    "            --hideLabels \n",
    "            --labelSize 14 \n",
    "            --layout horizontal \n",
    "            --hideCursor \n",
    "            --bgColour 0.0 0.0 0.0 \n",
    "            --fgColour 1.0 1.0 1.0 \n",
    "            --cursorColour 0.0 1.0 0.0 \n",
    "            --showColourBar \n",
    "            --colourBarLocation top \n",
    "            --colourBarLabelSide top-left \n",
    "            --performance 3 \n",
    "            '$label_file' \n",
    "            --name '$label_file_name' \n",
    "            --overlayType volume \n",
    "            --alpha 100.0 \n",
    "            --brightness 50.0 \n",
    "            --contrast 50.0 \n",
    "            --cmap greyscale \n",
    "            --negativeCmap greyscale \n",
    "            --displayRange 0.0 207.0 \n",
    "            --clippingRange 0.0 209.07 \n",
    "            --gamma 0.0 \n",
    "            --cmapResolution 256 \n",
    "            --interpolation none \n",
    "            --numSteps 100 \n",
    "            --blendFactor 0.1 \n",
    "            --smoothing 0 \n",
    "            --resolution 100 \n",
    "            --numInnerSteps 10 \n",
    "            --clipMode intersection \n",
    "            --volume 0 \n",
    "            '$field_file' \n",
    "            --name '$field_file_name' \n",
    "            --overlayType volume \n",
    "            --alpha 79.33333334031825 \n",
    "            --brightness 54.09163686077013 \n",
    "            --contrast 49.09314381711701 \n",
    "            --cmap render3 \n",
    "            --negativeCmap greyscale \n",
    "            --displayRange -6.0 6.0 \n",
    "            --clippingRange -6.0 6.505926780700683 \n",
    "            --gamma 0.0 --cmapResolution 256 \n",
    "            --interpolation none \n",
    "            --numSteps 100 \n",
    "            --blendFactor 0.1 \n",
    "            --smoothing 0 \n",
    "            --resolution 100 \n",
    "            --numInnerSteps 10 \n",
    "            --clipMode intersection \n",
    "            --volume 0'\n",
    "        echo $render_command >> \"$_render_dir/commands.txt\"\n",
    "        #echo $render_command\n",
    "        eval $render_command\n",
    "        echo \"--Finished rendering volume $index to .png--\"\n",
    "    done\n",
    "    ffmpeg -framerate 1 -i \"$_render_dir\"/output_%03d.png -vf \"pad=ceil(iw/2)*2:ceil(ih/2)*2\" -c:v libx264 -preset slow -profile:v high -level:v 4.0 -pix_fmt yuv420p -crf 1 \"$_render_dir\"/video.mp4\n",
    "    echo \"--Finished rendering pngs to video--\"\n",
    "}\n",
    "sleep 1\n",
    "render_dir_epic_field_e1=\"../../epi_corrections_out_2019_07_02/render_fields/EPIC/e1\"\n",
    "render epic_field_files_e1 epic_label_files_e1 render_dir_epic_field_e1\n",
    "sleep 2 # Sleep 1 second; this was necessary otherwise the next call of render() function did seem to get emtpy render dir argument...\n",
    "render_dir_topup_field_e2=\"../../epi_corrections_out_2019_07_02/render_fields/EPIC/e2\"\n",
    "render epic_field_files_e2 epic_label_files_e2 render_dir_topup_field_e2"
   ]
  }
 ],
 "metadata": {
  "kernelspec": {
   "display_name": "Python 3",
   "language": "python",
   "name": "python3"
  },
  "language_info": {
   "codemirror_mode": {
    "name": "ipython",
    "version": 3
   },
   "file_extension": ".py",
   "mimetype": "text/x-python",
   "name": "python",
   "nbconvert_exporter": "python",
   "pygments_lexer": "ipython3",
   "version": "3.7.3"
  }
 },
 "nbformat": 4,
 "nbformat_minor": 4
}
